<svg width="24" height="24" viewBox="0 0 24 24" fill="none" xmlns="http://www.w3.org/2000/svg">
<path d="M3.5277 21.3981L1.64258 0.25354H22.3576L20.4706 21.3949L11.9875 23.7467L3.5277 21.3981Z" fill="#1572B6"/>
<path d="M12.0002 21.9492L18.8551 20.0487L20.4677 1.9823H12.0002V21.9492Z" fill="#33A9DC"/>
<path d="M12.0002 9.64292H15.4319L15.6689 6.98736H12.0002V4.39404H18.5031L18.4409 5.08986L17.8034 12.2362H12.0002V9.64292Z" fill="white"/>
<path d="M12.0157 16.378L12.0042 16.3813L9.11618 15.6015L8.93149 13.5332H6.32861L6.6918 17.6051L12.0039 19.0795L12.0157 19.0761V16.378Z" fill="#EBEBEB"/>
<path d="M15.2113 12.1266L14.899 15.5995L12.0066 16.3802V19.0783L17.323 17.605L17.362 17.1668L17.8131 12.1266H15.2113Z" fill="white"/>
<path d="M12.0091 4.39404V6.98736H5.74506L5.69313 6.40461L5.575 5.08986L5.51294 4.39404H12.0091ZM12.0003 9.64329V12.2366H9.14856L9.09663 11.6539L8.97831 10.3391L8.91644 9.64329H12.0003Z" fill="#EBEBEB"/>
</svg>
