<svg width="41" height="32" viewBox="0 0 41 32" fill="none" xmlns="http://www.w3.org/2000/svg">
<path d="M36.9 0H4.1C1.845 0 0.0205 1.8 0.0205 4L0 28C0 30.2 1.845 32 4.1 32H36.9C39.155 32 41 30.2 41 28V4C41 1.8 39.155 0 36.9 0ZM36.08 8.5L21.5865 17.34C20.9305 17.74 20.0695 17.74 19.4135 17.34L4.92 8.5C4.71444 8.38742 4.53443 8.23532 4.39087 8.05291C4.24731 7.87049 4.14318 7.66156 4.08478 7.43874C4.02638 7.21593 4.01493 6.98387 4.05112 6.75661C4.08731 6.52936 4.17039 6.31163 4.29533 6.1166C4.42027 5.92158 4.58446 5.75331 4.77799 5.62199C4.97151 5.49067 5.19034 5.39902 5.42122 5.3526C5.6521 5.30617 5.89023 5.30593 6.12121 5.3519C6.35218 5.39786 6.5712 5.48907 6.765 5.62L20.5 14L34.235 5.62C34.4288 5.48907 34.6478 5.39786 34.8788 5.3519C35.1098 5.30593 35.3479 5.30617 35.5788 5.3526C35.8097 5.39902 36.0285 5.49067 36.222 5.62199C36.4155 5.75331 36.5797 5.92158 36.7047 6.1166C36.8296 6.31163 36.9127 6.52936 36.9489 6.75661C36.9851 6.98387 36.9736 7.21593 36.9152 7.43874C36.8568 7.66156 36.7527 7.87049 36.6091 8.05291C36.4656 8.23532 36.2856 8.38742 36.08 8.5Z" fill="#F2F2F2"/>
</svg>
