<svg width="40" height="40" viewBox="0 0 40 40" fill="none" xmlns="http://www.w3.org/2000/svg">
<path fill-rule="evenodd" clip-rule="evenodd" d="M19.9975 0C8.955 0 0 9.1813 0 20.5054C0 29.5637 5.73 37.2506 13.6775 39.9625C14.6775 40.1496 15.0425 39.5165 15.0425 38.9731C15.0425 38.4861 15.025 37.1968 15.015 35.4846C9.4525 36.7226 8.2775 32.7369 8.2775 32.7369C7.3675 30.3685 6.0575 29.738 6.0575 29.738C4.2425 28.4666 6.195 28.4923 6.195 28.4923C8.2025 28.6384 9.2575 30.6043 9.2575 30.6043C11.0425 33.7391 13.9375 32.8343 15.0775 32.3088C15.26 30.9837 15.775 30.0789 16.3475 29.5688C11.9075 29.051 7.2375 27.2927 7.2375 19.434C7.2375 17.1963 8.0175 15.3662 9.295 13.9309C9.0925 13.4131 8.405 11.3267 9.495 8.50462C9.495 8.50462 11.175 7.95354 14.995 10.6064C16.59 10.1527 18.3 9.92462 20 9.91693C21.6975 9.92462 23.41 10.1527 25.0075 10.6064C28.825 7.95354 30.5025 8.50462 30.5025 8.50462C31.5925 11.3267 30.9075 13.4131 30.7025 13.9309C31.985 15.3637 32.7575 17.1938 32.7575 19.434C32.7575 27.3106 28.0825 29.0459 23.625 29.5534C24.3425 30.1865 24.9825 31.4374 24.9825 33.3495C24.9825 36.0895 24.9575 38.3015 24.9575 38.9757C24.9575 39.5242 25.3175 40.1624 26.3325 39.9625C34.275 37.243 40 29.5637 40 20.5054C40 9.1813 31.045 0 19.9975 0Z" fill="#F2F2F2"/>
</svg>
