<svg width="32" height="32" viewBox="0 0 32 32" fill="none" xmlns="http://www.w3.org/2000/svg">
<path fill-rule="evenodd" clip-rule="evenodd" d="M15.998 0C7.164 0 0 7.34504 0 16.4043C0 23.6509 4.584 29.8005 10.942 31.97C11.742 32.1197 12.034 31.6132 12.034 31.1785C12.034 30.7889 12.02 29.7574 12.012 28.3877C7.562 29.3781 6.622 26.1895 6.622 26.1895C5.894 24.2948 4.846 23.7904 4.846 23.7904C3.394 22.7733 4.956 22.7938 4.956 22.7938C6.562 22.9107 7.406 24.4835 7.406 24.4835C8.834 26.9913 11.15 26.2674 12.062 25.8471C12.208 24.7869 12.62 24.0631 13.078 23.655C9.526 23.2408 5.79 21.8342 5.79 15.5472C5.79 13.7571 6.414 12.293 7.436 11.1447C7.274 10.7305 6.724 9.06134 7.596 6.80369C7.596 6.80369 8.94 6.36283 11.996 8.48514C13.272 8.12219 14.64 7.93969 16 7.93354C17.358 7.93969 18.728 8.12219 20.006 8.48514C23.06 6.36283 24.402 6.80369 24.402 6.80369C25.274 9.06134 24.726 10.7305 24.562 11.1447C25.588 12.2909 26.206 13.755 26.206 15.5472C26.206 21.8485 22.466 23.2367 18.9 23.6427C19.474 24.1492 19.986 25.1499 19.986 26.6796C19.986 28.8716 19.966 30.6412 19.966 31.1805C19.966 31.6193 20.254 32.1299 21.066 31.97C27.42 29.7944 32 23.6509 32 16.4043C32 7.34504 24.836 0 15.998 0Z" fill="#F2F2F2"/>
</svg>
