<svg width="24" height="24" viewBox="0 0 24 24" fill="none" xmlns="http://www.w3.org/2000/svg">
<path d="M18.375 0H5.625C2.5184 0 0 2.5184 0 5.625V18.375C0 21.4816 2.5184 24 5.625 24H18.375C21.4816 24 24 21.4816 24 18.375V5.625C24 2.5184 21.4816 0 18.375 0Z" fill="#262626"/>
<path d="M18.375 0H5.625C2.5184 0 0 2.5184 0 5.625V18.375C0 21.4816 2.5184 24 5.625 24H18.375C21.4816 24 24 21.4816 24 18.375V5.625C24 2.5184 21.4816 0 18.375 0Z" fill="#F2F2F2"/>
<path d="M17.317 20.408H20.0611C20.1605 20.408 20.2559 20.3685 20.3262 20.2982C20.3965 20.2279 20.436 20.1325 20.4361 20.0331L20.4375 14.2354C20.4375 11.2051 19.7845 8.87588 16.2433 8.87588C14.8971 8.82581 13.6277 9.51975 12.9426 10.6785C12.9393 10.6841 12.9342 10.6885 12.9281 10.691C12.922 10.6934 12.9153 10.6938 12.909 10.6921C12.9027 10.6904 12.8971 10.6867 12.8931 10.6815C12.8891 10.6763 12.8869 10.67 12.8868 10.6634V9.53063C12.8868 9.43117 12.8473 9.33579 12.777 9.26546C12.7067 9.19513 12.6113 9.15563 12.5118 9.15563H9.90775C9.80829 9.15563 9.71291 9.19513 9.64259 9.26546C9.57226 9.33579 9.53275 9.43117 9.53275 9.53063V20.0325C9.53275 20.132 9.57226 20.2273 9.64259 20.2977C9.71291 20.368 9.80829 20.4075 9.90775 20.4075H12.6516C12.7511 20.4075 12.8465 20.368 12.9168 20.2977C12.9871 20.2273 13.0266 20.132 13.0266 20.0325V14.8413C13.0266 13.3734 13.3051 11.9519 15.1248 11.9519C16.9188 11.9519 16.942 13.6315 16.942 14.9363V20.033C16.942 20.1324 16.9815 20.2278 17.0518 20.2981C17.1222 20.3685 17.2175 20.408 17.317 20.408ZM3.56247 5.59013C3.56247 6.70238 4.47813 7.61756 5.59047 7.61756C6.70253 7.61747 7.61763 6.70172 7.61763 5.58966C7.61744 4.47759 6.70225 3.5625 5.59009 3.5625C4.47766 3.5625 3.56247 4.47787 3.56247 5.59013ZM4.21488 20.408H6.96241C7.06186 20.408 7.15725 20.3685 7.22757 20.2981C7.2979 20.2278 7.33741 20.1324 7.33741 20.033V9.53063C7.33741 9.43117 7.2979 9.33579 7.22757 9.26546C7.15725 9.19513 7.06186 9.15563 6.96241 9.15563H4.21488C4.11542 9.15563 4.02004 9.19513 3.94971 9.26546C3.87938 9.33579 3.83988 9.43117 3.83988 9.53063V20.033C3.83988 20.1324 3.87938 20.2278 3.94971 20.2981C4.02004 20.3685 4.11542 20.408 4.21488 20.408Z" fill="#262626"/>
</svg>
