<svg width="32" height="32" viewBox="0 0 32 32" fill="none" xmlns="http://www.w3.org/2000/svg">
<path d="M24.5 0H7.5C3.35786 0 0 3.35786 0 7.5V24.5C0 28.6421 3.35786 32 7.5 32H24.5C28.6421 32 32 28.6421 32 24.5V7.5C32 3.35786 28.6421 0 24.5 0Z" fill="#262626"/>
<path d="M24.5 0H7.5C3.35786 0 0 3.35786 0 7.5V24.5C0 28.6421 3.35786 32 7.5 32H24.5C28.6421 32 32 28.6421 32 24.5V7.5C32 3.35786 28.6421 0 24.5 0Z" fill="#F2F2F2"/>
<path d="M23.0893 27.2106H26.7481C26.8807 27.2106 27.0078 27.158 27.1016 27.0642C27.1954 26.9705 27.2481 26.8433 27.2481 26.7108L27.25 18.9805C27.25 14.9401 26.3793 11.8345 21.6577 11.8345C19.8628 11.7678 18.1702 12.693 17.2568 14.238C17.2524 14.2455 17.2456 14.2513 17.2375 14.2546C17.2294 14.2579 17.2204 14.2584 17.212 14.2562C17.2036 14.2539 17.1961 14.2489 17.1908 14.242C17.1855 14.2351 17.1825 14.2266 17.1825 14.2179V12.7075C17.1825 12.5749 17.1298 12.4477 17.036 12.3539C16.9422 12.2602 16.8151 12.2075 16.6825 12.2075H13.2103C13.0777 12.2075 12.9505 12.2602 12.8568 12.3539C12.763 12.4477 12.7103 12.5749 12.7103 12.7075V26.71C12.7103 26.8426 12.763 26.9698 12.8568 27.0636C12.9505 27.1573 13.0777 27.21 13.2103 27.21H16.8688C17.0014 27.21 17.1286 27.1573 17.2224 27.0636C17.3162 26.9698 17.3688 26.8426 17.3688 26.71V19.7884C17.3688 17.8313 17.7401 15.9359 20.1665 15.9359C22.5583 15.9359 22.5893 18.1754 22.5893 19.9151V26.7106C22.5893 26.8432 22.642 26.9704 22.7358 27.0642C22.8295 27.1579 22.9567 27.2106 23.0893 27.2106ZM4.74996 7.4535C4.74996 8.9365 5.97083 10.1568 7.45396 10.1568C8.93671 10.1566 10.1568 8.93563 10.1568 7.45288C10.1566 5.97013 8.93633 4.75 7.45346 4.75C5.97021 4.75 4.74996 5.9705 4.74996 7.4535ZM5.61983 27.2106H9.28321C9.41582 27.2106 9.543 27.1579 9.63676 27.0642C9.73053 26.9704 9.78321 26.8432 9.78321 26.7106V12.7075C9.78321 12.5749 9.73053 12.4477 9.63676 12.3539C9.543 12.2602 9.41582 12.2075 9.28321 12.2075H5.61983C5.48723 12.2075 5.36005 12.2602 5.26628 12.3539C5.17251 12.4477 5.11983 12.5749 5.11983 12.7075V26.7106C5.11983 26.8432 5.17251 26.9704 5.26628 27.0642C5.36005 27.1579 5.48723 27.2106 5.61983 27.2106Z" fill="#262626"/>
</svg>
