<svg width="40" height="40" viewBox="0 0 40 40" fill="none" xmlns="http://www.w3.org/2000/svg">
<path d="M30.625 0H9.375C4.19733 0 0 4.19733 0 9.375V30.625C0 35.8027 4.19733 40 9.375 40H30.625C35.8027 40 40 35.8027 40 30.625V9.375C40 4.19733 35.8027 0 30.625 0Z" fill="#262626"/>
<path d="M30.625 0H9.375C4.19733 0 0 4.19733 0 9.375V30.625C0 35.8027 4.19733 40 9.375 40H30.625C35.8027 40 40 35.8027 40 30.625V9.375C40 4.19733 35.8027 0 30.625 0Z" fill="#F2F2F2"/>
<path d="M28.8617 34.0133H33.4351C33.6008 34.0133 33.7598 33.9475 33.877 33.8303C33.9942 33.7131 34.0601 33.5542 34.0601 33.3884L34.0624 23.7256C34.0624 18.6752 32.9742 14.7931 27.0721 14.7931C24.8285 14.7097 22.7128 15.8663 21.571 17.7975C21.5655 17.8069 21.557 17.8142 21.5468 17.8183C21.5367 17.8224 21.5255 17.823 21.515 17.8202C21.5045 17.8173 21.4952 17.8111 21.4885 17.8025C21.4818 17.7938 21.4782 17.7833 21.4781 17.7723V15.8844C21.4781 15.7186 21.4122 15.5596 21.295 15.4424C21.1778 15.3252 21.0188 15.2594 20.8531 15.2594H16.5129C16.3472 15.2594 16.1882 15.3252 16.071 15.4424C15.9538 15.5596 15.8879 15.7186 15.8879 15.8844V33.3875C15.8879 33.5533 15.9538 33.7122 16.071 33.8294C16.1882 33.9467 16.3472 34.0125 16.5129 34.0125H21.086C21.2518 34.0125 21.4108 33.9467 21.528 33.8294C21.6452 33.7122 21.711 33.5533 21.711 33.3875V24.7355C21.711 22.2891 22.1751 19.9198 25.2081 19.9198C28.1979 19.9198 28.2367 22.7192 28.2367 24.8939V33.3883C28.2367 33.554 28.3025 33.713 28.4197 33.8302C28.5369 33.9474 28.6959 34.0133 28.8617 34.0133ZM5.93745 9.31687C5.93745 11.1706 7.46354 12.6959 9.31745 12.6959C11.1709 12.6958 12.696 11.1695 12.696 9.31609C12.6957 7.46266 11.1704 5.9375 9.31682 5.9375C7.46276 5.9375 5.93745 7.46312 5.93745 9.31687ZM7.02479 34.0133H11.604C11.7698 34.0133 11.9287 33.9474 12.046 33.8302C12.1632 33.713 12.229 33.554 12.229 33.3883V15.8844C12.229 15.7186 12.1632 15.5596 12.046 15.4424C11.9287 15.3252 11.7698 15.2594 11.604 15.2594H7.02479C6.85903 15.2594 6.70006 15.3252 6.58285 15.4424C6.46564 15.5596 6.39979 15.7186 6.39979 15.8844V33.3883C6.39979 33.554 6.46564 33.713 6.58285 33.8302C6.70006 33.9474 6.85903 34.0133 7.02479 34.0133Z" fill="#262626"/>
</svg>
