<svg width="64" height="64" viewBox="0 0 64 64" fill="none" xmlns="http://www.w3.org/2000/svg">
<path fill-rule="evenodd" clip-rule="evenodd" d="M31.996 0C14.328 0 0 14.6901 0 32.8087C0 47.3019 9.168 59.601 21.884 63.94C23.484 64.2393 24.068 63.2264 24.068 62.3569C24.068 61.5777 24.04 59.5149 24.024 56.7754C15.124 58.7562 13.244 52.379 13.244 52.379C11.788 48.5896 9.692 47.5808 9.692 47.5808C6.788 45.5466 9.912 45.5876 9.912 45.5876C13.124 45.8214 14.812 48.9669 14.812 48.9669C17.668 53.9825 22.3 52.5349 24.124 51.6941C24.416 49.5739 25.24 48.1262 26.156 47.3101C19.052 46.4817 11.58 43.6683 11.58 31.0944C11.58 27.5142 12.828 24.586 14.872 22.2894C14.548 21.461 13.448 18.1227 15.192 13.6074C15.192 13.6074 17.88 12.7257 23.992 16.9703C26.544 16.2444 29.28 15.8794 32 15.8671C34.716 15.8794 37.456 16.2444 40.012 16.9703C46.12 12.7257 48.804 13.6074 48.804 13.6074C50.548 18.1227 49.452 21.461 49.124 22.2894C51.176 24.5819 52.412 27.5101 52.412 31.0944C52.412 43.697 44.932 46.4735 37.8 47.2855C38.948 48.2984 39.972 50.2998 39.972 53.3592C39.972 57.7432 39.932 61.2825 39.932 62.3611C39.932 63.2387 40.508 64.2598 42.132 63.94C54.84 59.5887 64 47.3019 64 32.8087C64 14.6901 49.672 0 31.996 0Z" fill="white"/>
</svg>
