<svg width="64" height="64" viewBox="0 0 64 64" fill="none" xmlns="http://www.w3.org/2000/svg">
<path d="M11.8041 54.402L7.31006 4H56.6901L52.1901 54.394L31.9701 60L11.8041 54.402Z" fill="#E44F26"/>
<path d="M32 55.716L48.34 51.186L52.184 8.12195H32V55.716Z" fill="#F1662A"/>
<path d="M32 26.814H23.82L23.256 20.484H32V14.302H16.5L16.648 15.962L18.166 32.996H32V26.814ZM32 42.868L31.972 42.876L25.088 41.018L24.648 36.088H18.442L19.308 45.792L31.972 49.308L32 49.3V42.868Z" fill="#EBEBEB"/>
<path d="M31.978 26.814V32.996H39.59L38.874 41.014L31.978 42.874V49.306L44.652 45.792L44.744 44.748L46.196 28.474L46.348 26.814H31.978ZM31.978 14.302V20.484H46.91L47.034 19.096L47.316 15.962L47.464 14.302H31.978Z" fill="white"/>
</svg>
