<svg width="186" height="24" viewBox="0 0 186 24" fill="none" xmlns="http://www.w3.org/2000/svg">
<path d="M176.397 6.35547C175.233 6.35547 173.65 7.16338 173.65 8.84381C173.65 13.0772 185.09 14.2729 185.09 19.3788C185.09 22.4165 181.955 24 178.982 24C175.75 24 172.907 22.8043 172.002 22.8043C171.42 22.8043 171.162 22.9013 171.162 23.289H171C171 21.9318 171.937 20.4452 173.521 20.4452C175.363 20.4452 176.074 23.6122 178.982 23.6122C181.212 23.6122 182.504 22.3196 182.504 20.3806C182.504 16.1149 171 14.1759 171 10.0395C171 7.6158 173.553 6 176.978 6C178.982 6 181.697 7.22801 183.151 7.22801C183.732 7.22801 183.894 7.09874 183.959 6.71095H184.185C184.185 8.06822 183.345 9.45781 181.955 9.45781C179.725 9.45781 179.531 6.35547 176.397 6.35547Z" fill="#010D01"/>
<path d="M170.459 19.5727L170.717 19.7666C169.392 21.9964 167.227 24 164.189 24C160.215 24 157.5 20.5422 157.5 15.6302C157.5 10.6858 160.635 6 165.159 6C167.356 6 169.715 7.06643 169.715 8.94075C169.715 12.9803 161.313 13.0449 159.697 13.0126C159.73 17.149 161.701 21.9964 165.967 21.9964C167.518 21.9964 169.457 21.1239 170.459 19.5727ZM164.222 6.54937C161.701 6.54937 159.762 9.52244 159.697 12.6571C162.218 12.5925 167.259 11.7522 167.259 8.90844C167.259 7.51885 165.838 6.54937 164.222 6.54937Z" fill="#010D01"/>
<path d="M155.813 21.2504C155.813 23.0325 156.017 23.2617 156.984 23.2617V23.4399H155.049C154.082 23.4399 153.318 22.6761 153.318 21.7086C153.318 21.7086 153.318 21.7086 153.318 21.6832C152.402 22.9562 151.078 24 149.27 24C146.139 24 144 21.2758 144 17.4059C144 13.1542 146.215 9.81895 150.212 9.81895C151.103 9.81895 152.325 10.0481 153.318 10.4554V10.1245C153.318 9.38614 153.318 8.9024 153.318 8.77511C153.293 7.06931 153.293 6.66195 152.122 6.86563V6.66195L155.813 6C155.813 9.86987 155.813 17.2532 155.813 21.2504ZM150.67 22.4215C151.638 22.4215 152.58 21.9887 153.318 21.1994C153.318 19.6973 153.293 13.4597 153.318 11.983C152.529 11.1174 150.95 10.2263 149.576 10.2263C147.055 10.2263 145.731 12.3904 145.731 15.4455C145.731 18.7298 147.259 22.4215 150.67 22.4215Z" fill="#010D01"/>
<path d="M131.211 20.5099C131.211 22.772 131.469 23.0628 132.697 23.0628V23.289C130.5 23.289 128.917 23.3214 126.557 23.289V23.0628C127.753 23.0628 127.979 22.772 128.044 20.5099C128.044 20.3483 128.044 20.1544 128.044 19.9928C128.173 19.7989 128.335 19.605 128.464 19.4434C129.434 18.1508 130.338 16.4381 131.211 14.3698C131.211 16.4057 131.179 18.474 131.211 20.5099ZM141.358 20.5099C141.358 22.772 141.649 23.0305 142.877 23.0305V23.289C140.647 23.289 139.064 23.289 136.705 23.289V23.0305C137.933 23.0305 138.127 22.772 138.191 20.5099C138.191 18.7971 138.191 15.3393 138.191 12.9156C138.191 9.36086 137.577 7.90664 135.864 7.90664C133.796 7.90664 132.277 10.0718 131.211 12.8187C130.759 14.0144 129.627 16.9551 128.012 19.088C126.04 21.7056 123.261 24 119.642 24C115.667 24 112.5 20.5422 112.5 15.6302C112.5 9.78097 116.346 6 120.741 6C123.164 6 124.877 7.26032 124.877 9.29623C124.812 12.1724 119.771 14.9838 115.053 14.1436C115.15 19.1203 117.768 22.4165 121.839 22.4165C124.328 22.4165 126.461 20.4776 128.044 18.3447C128.044 14.1759 128.044 11.1382 128.044 10.5242C128.012 8.32675 128.012 7.84201 126.557 8.10054V7.84201L131.211 6.96948V11.7199C132.697 8.29443 134.475 6 137.286 6C140.001 6 141.358 8.10054 141.358 12.3339V20.5099ZM120.45 6.45242C117.089 6.45242 115.053 10.2657 115.053 13.8205C120.094 14.3698 122.55 11.0413 122.55 8.90844C122.55 7.35727 121.645 6.45242 120.45 6.45242Z" fill="#010D01"/>
<path d="M87 23.7237C87.6216 23.7237 87.8979 22.7914 88.0705 21.2374C88.3468 19.0964 88.5885 9.35827 88.5885 0.89784C88.2086 0.517985 87.6907 0.276257 87 0.276257V0C88.3813 0 90.6259 0 91.9727 0L99.5007 19.5453L106.994 0C108.686 0 110.655 0 111.967 0V0.276257C110.655 0.276257 110.378 0.552517 110.378 3.00431V20.9957C110.378 23.4475 110.655 23.7237 111.967 23.7237V24C109.895 24 107.547 24 105.371 24V23.7237C106.683 23.7237 106.994 23.4475 106.994 20.9957V1.24316L98.2576 24H97.7741C97.705 23.7237 89.7281 2.96978 89.659 2.76259C89.4518 2.27914 89.2446 1.79568 89.0029 1.41583L89.1065 5.59424C89.659 14.2273 91.1784 16.5755 91.1784 20.0978C91.1784 22.9986 88.7957 24 87 24C87 23.8964 87 23.7928 87 23.7237Z" fill="#010D01"/>
<path d="M71.3968 6.35547C70.2334 6.35547 68.6499 7.16338 68.6499 8.84381C68.6499 13.0772 80.0898 14.2729 80.0898 19.3788C80.0898 22.4165 76.9551 24 73.982 24C70.7505 24 67.9066 22.8043 67.0018 22.8043C66.4201 22.8043 66.1616 22.9013 66.1616 23.289H66C66 21.9318 66.9372 20.4452 68.5206 20.4452C70.3627 20.4452 71.0736 23.6122 73.982 23.6122C76.2119 23.6122 77.5045 22.3196 77.5045 20.3806C77.5045 16.1149 66 14.1759 66 10.0395C66 7.6158 68.553 6 71.9785 6C73.982 6 76.6966 7.22801 78.1508 7.22801C78.7325 7.22801 78.8941 7.09874 78.9587 6.71095H79.1849C79.1849 8.06822 78.3447 9.45781 76.9551 9.45781C74.7253 9.45781 74.5314 6.35547 71.3968 6.35547Z" fill="#010D01"/>
<path d="M49.5 19.088C49.5 15.2101 53.2487 13.1741 57.4174 13.1741C59.2917 13.1741 60.649 13.6589 61.1984 13.7558C61.1984 13.0126 61.1984 11.9138 61.1984 10.8797C61.1661 7.87433 61.0045 6.45242 59.1625 6.45242C57.1912 6.45242 54.412 10.5566 52.3438 10.5566C50.3725 10.5566 49.5 7.19569 49.5 6H49.7585C49.7585 6.64632 50.9865 8.03591 52.1176 8.03591C53.6688 8.03591 56.6095 6 59.8411 6C63.0081 6 64.3653 7.90664 64.3653 10.9767V20.5099C64.3653 22.772 64.6239 23.0628 65.8519 23.0628V23.289H63.6544C62.2971 23.289 61.1984 22.1903 61.1984 20.833V19.0233C60.7783 21.2531 58.5808 24 54.8968 24C52.3438 24 49.5 22.2226 49.5 19.088ZM61.1984 14.1759C60.8106 14.0467 59.5826 13.7558 58.6777 13.7558C54.5736 13.7558 52.5054 16.4704 52.5054 19.2495C52.5054 21.6409 54.2504 22.9013 56.0601 22.9013C58.9039 22.9013 60.6813 20.6068 61.1984 17.9246V14.1759Z" fill="#010D01"/>
<path d="M49.0233 19.5727L49.2819 19.7666C47.9892 21.9964 45.7271 24 42.6894 24C38.7145 24 36 20.5422 36 15.6302C36 10.6858 38.3267 6 42.851 6C46.9228 6 46.3088 9.97486 47.6338 9.97486C47.9892 9.97486 49.2415 6.35547 49.2415 6C49.3707 6 49.4031 6 49.5 6C49.5 7.19569 47.8923 12.1077 46.5673 12.1077C43.465 12.1077 44.7253 6.54937 42.1077 6.54937C39.5224 6.54937 38.2298 9.91023 38.2298 13.3034C38.2621 17.5368 40.7181 21.9964 44.8546 21.9964C46.4057 21.9964 48.0539 21.1239 49.0233 19.5727Z" fill="#010D01"/>
<path d="M34.3571 19.2433C34.3571 21.5703 34.3929 22.0837 36 21.8441V22.0836L30.8571 23.0076C30.8571 20.7148 30.8571 18.5589 30.8571 16.4715C30.1429 18.73 27.6429 24 23.7143 24C20.7143 24 19.6429 21.7757 19.6429 17.2928C19.6429 17.2928 19.6429 10.1065 19.6429 9.76426C19.6071 7.43726 19.6071 6.92395 18 7.1635V6.92395L23.1429 6C23.1429 10.8935 23.1429 13.6312 23.1429 16.6768C23.1429 20.4411 23.5714 21.981 25.3929 21.981C27.6786 21.981 30 18.2509 30.8571 15.4449C30.8571 13.4943 30.8571 11.5779 30.8571 9.76426C30.8571 7.43726 30.8214 6.92395 29.2143 7.1635V6.92395L34.3571 6C34.3929 11.1331 34.3571 16.5741 34.3571 19.2433Z" fill="#010D01"/>
<path d="M0 23.7237C1.3904 23.7237 1.7286 23.4475 1.7286 20.9957V3.00431C1.7286 0.552517 1.3904 0.276257 0 0.276257V0C2.02923 0 4.96033 0 7.13987 0V0.276257C5.7119 0.276257 5.41127 0.552517 5.41127 3.00431C5.41127 3.31511 5.41127 22.1698 5.41127 23.6201C7.70355 23.6201 13.1524 20.5468 15.595 20.5468C17.3987 20.5468 18 22.6878 18 24C17.9248 24 17.8497 24 17.6994 24C17.6994 23.3094 16.6096 23.1712 16.0835 23.1712C13.904 23.1712 8.8309 24 5.41127 24C3.68267 24 2.14196 24 0 24V23.7237Z" fill="#010D01"/>
</svg>
