<svg width="16" height="20" viewBox="0 0 16 20" fill="none" xmlns="http://www.w3.org/2000/svg">
<path d="M13.3773 10.0616C13.3688 8.5016 14.0744 7.32412 15.5027 6.45696C14.7035 5.3135 13.4963 4.68438 11.9022 4.56111C10.3932 4.44208 8.74389 5.44102 8.14028 5.44102C7.50266 5.44102 6.04038 4.60361 4.89267 4.60361C2.52072 4.64187 0 6.49522 0 10.2657C0 11.3794 0.204038 12.5299 0.612115 13.7173C1.15622 15.2774 3.12009 19.1031 5.16897 19.0393C6.24017 19.0138 6.99681 18.2784 8.39107 18.2784C9.74283 18.2784 10.4442 19.0393 11.6387 19.0393C13.7046 19.0096 15.4814 15.5324 16 13.9681C13.2285 12.6631 13.3773 10.1424 13.3773 10.0616ZM10.9713 3.08183C12.1318 1.70457 12.0255 0.450585 11.9915 0C10.9671 0.0595112 9.78108 0.697131 9.10521 1.48353C8.36132 2.32519 7.92349 3.36663 8.017 4.53985C9.12646 4.62487 10.1382 4.05526 10.9713 3.08183Z" fill="black"/>
</svg>
