<svg width="21" height="21" viewBox="0 0 21 21" fill="none" xmlns="http://www.w3.org/2000/svg">
<path d="M0.945713 13.0701C1.54571 12.8556 2.16571 12.7484 2.82571 12.7484C4.16571 12.7484 5.33571 13.1579 6.33571 13.9768L3.19571 17.0381C2.15369 15.8941 1.38519 14.5389 0.945713 13.0701ZM14.1657 8.36118C16.1357 9.79434 18.2657 10.1453 20.5457 9.41411C20.5757 9.61885 20.6057 9.98932 20.6057 10.506C20.6057 11.5102 20.3557 12.6314 19.8857 13.8696C19.4157 15.098 18.8357 16.0924 18.1557 16.8431L11.8257 10.6913L14.1657 8.36118ZM7.37571 15.0297C8.43571 16.5214 8.65571 18.1495 8.02571 19.9239C6.60571 19.5242 5.33571 18.9002 4.27571 18.0423L7.37571 15.0297ZM10.7957 11.6955L17.1057 17.8668C14.9357 19.7192 12.3857 20.4991 9.48571 20.1969C9.69571 19.5535 9.80571 18.8515 9.80571 18.0911C9.80571 17.4866 9.66571 16.7749 9.38571 15.9657C9.10571 15.1565 8.77571 14.4935 8.40571 13.9768L10.7957 11.6955ZM7.41571 12.9434C6.50427 12.149 5.38728 11.613 4.18571 11.3932C2.96571 11.169 1.79571 11.2372 0.665713 11.6077C0.635713 11.3932 0.605713 11.0228 0.605713 10.506C0.605713 9.50185 0.855713 8.38068 1.32571 7.14251C1.79571 5.91409 2.37571 4.91965 3.05571 4.16895L9.71571 10.6913L7.41571 12.9434ZM14.1657 6.34306C12.8257 4.73441 12.5157 2.97952 13.2357 1.08815C13.8557 1.24414 14.5657 1.53662 15.3657 1.98509C16.1557 2.42381 16.8057 2.86253 17.3057 3.28175L14.1657 6.34306ZM20.2657 7.9517C19.6657 8.15644 19.0457 8.26368 18.3857 8.26368C17.2957 8.26368 16.2457 7.9517 15.2457 7.30825L18.3357 4.33469C19.2157 5.40712 19.8557 6.60629 20.2657 7.9517ZM10.7957 9.63835L4.10571 3.14526C6.27571 1.29288 8.82571 0.512932 11.7357 0.815163C11.5157 1.45862 11.4057 2.16058 11.4057 2.92103C11.4057 3.62298 11.5657 4.41268 11.8957 5.29987C12.2257 6.17732 12.6057 6.87927 13.1057 7.39599L10.7957 9.63835Z" fill="#F1B441"/>
</svg>
