<svg width="25" height="16" viewBox="0 0 25 16" fill="none" xmlns="http://www.w3.org/2000/svg">
<path d="M19.6057 5.98874C19.0457 5.98874 18.5157 6.09598 18.0157 6.26172L15.0657 0.626587H11.6057V2.08899H14.1457L15.0257 3.76588L12.6057 9.0403L10.8357 4.96506C11.1057 4.86756 11.3457 4.60433 11.3457 4.2826C11.3457 3.88288 11.0157 3.5514 10.6057 3.5514H8.60571C8.18571 3.5514 7.84571 3.88288 7.84571 4.2826C7.84571 4.68233 8.18571 5.0138 8.60571 5.0138H9.21571L11.4657 10.1322H10.5257C10.1657 7.79238 8.10571 5.98874 5.60571 5.98874C2.84571 5.98874 0.605713 8.1726 0.605713 10.8634C0.605713 13.5543 2.84571 15.7381 5.60571 15.7381C8.10571 15.7381 10.1657 13.9345 10.5257 11.5946H13.1057L15.8957 5.43303L16.6857 6.92468C16.0434 7.37326 15.5197 7.96441 15.1581 8.64929C14.7964 9.33416 14.6071 10.0931 14.6057 10.8634C14.6057 13.5543 16.8457 15.7381 19.6057 15.7381C22.3657 15.7381 24.6057 13.5543 24.6057 10.8634C24.6057 8.1726 22.3657 5.98874 19.6057 5.98874ZM5.60571 14.2757C3.67571 14.2757 2.10571 12.7451 2.10571 10.8634C2.10571 8.9818 3.67571 7.45115 5.60571 7.45115C7.27571 7.45115 8.67571 8.60157 9.01571 10.1322H4.60571V11.5946H9.01571C8.84589 12.3535 8.4152 13.0331 7.79503 13.5207C7.17486 14.0083 6.40242 14.2747 5.60571 14.2757ZM19.6057 14.2757C17.6757 14.2757 16.1057 12.7451 16.1057 10.8634C16.1057 9.8105 16.6057 8.88431 17.3757 8.26035L19.1757 11.6921L20.4957 10.9902L18.7057 7.57789C18.9957 7.50964 19.2957 7.45115 19.6057 7.45115C21.5357 7.45115 23.1057 8.9818 23.1057 10.8634C23.1057 12.7451 21.5357 14.2757 19.6057 14.2757Z" fill="#F1B441"/>
</svg>
