<svg width="16" height="16" viewBox="0 0 16 16" fill="none" xmlns="http://www.w3.org/2000/svg">
<path d="M15.5655 0.174936C15.8811 0.393686 16.0467 0.771811 15.9873 1.14994L13.9873 14.1499C13.9405 14.4531 13.7561 14.7187 13.4873 14.8687C13.2186 15.0187 12.8967 15.0374 12.6123 14.9187L8.87484 13.3656L6.73421 15.6812C6.45609 15.9843 6.01859 16.0843 5.63421 15.9343C5.24984 15.7843 4.99984 15.4124 4.99984 14.9999V12.3874C4.99984 12.2624 5.04671 12.1437 5.13109 12.0499L10.3686 6.33744C10.5498 6.14056 10.5436 5.83744 10.3561 5.64994C10.1686 5.46244 9.86546 5.44994 9.66859 5.62806L3.31234 11.2749L0.552962 9.89369C0.221712 9.72806 0.0092122 9.39681 -0.000162795 9.02806C-0.0095378 8.65931 0.184212 8.31556 0.502962 8.13119L14.503 0.131186C14.8373 -0.0594386 15.2498 -0.0406886 15.5655 0.174936Z" fill="white"/>
</svg>
