<svg width="16" height="16" viewBox="0 0 16 16" fill="none" xmlns="http://www.w3.org/2000/svg">
<path fill-rule="evenodd" clip-rule="evenodd" d="M7.999 0C3.582 0 0 3.67252 0 8.20216C0 11.8255 2.292 14.9003 5.471 15.985C5.871 16.0598 6.017 15.8066 6.017 15.5892C6.017 15.3944 6.01 14.8787 6.006 14.1938C3.781 14.689 3.311 13.0948 3.311 13.0948C2.947 12.1474 2.423 11.8952 2.423 11.8952C1.697 11.3867 2.478 11.3969 2.478 11.3969C3.281 11.4553 3.703 12.2417 3.703 12.2417C4.417 13.4956 5.575 13.1337 6.031 12.9235C6.104 12.3935 6.31 12.0315 6.539 11.8275C4.763 11.6204 2.895 10.9171 2.895 7.7736C2.895 6.87854 3.207 6.1465 3.718 5.57234C3.637 5.36524 3.362 4.53067 3.798 3.40185C3.798 3.40185 4.47 3.18141 5.998 4.24257C6.636 4.0611 7.32 3.96985 8 3.96677C8.679 3.96985 9.364 4.0611 10.003 4.24257C11.53 3.18141 12.201 3.40185 12.201 3.40185C12.637 4.53067 12.363 5.36524 12.281 5.57234C12.794 6.14547 13.103 6.87751 13.103 7.7736C13.103 10.9243 11.233 11.6184 9.45 11.8214C9.737 12.0746 9.993 12.5749 9.993 13.3398C9.993 14.4358 9.983 15.3206 9.983 15.5903C9.983 15.8097 10.127 16.065 10.533 15.985C13.71 14.8972 16 11.8255 16 8.20216C16 3.67252 12.418 0 7.999 0Z" fill="#0C0D01"/>
</svg>
