<svg width="32" height="32" viewBox="0 0 32 32" fill="none" xmlns="http://www.w3.org/2000/svg">
<path d="M16 0C24.8368 0 32 7.1632 32 16C32 24.8368 24.8368 32 16 32C13.1724 32.0048 10.3945 31.2565 7.95202 29.832L0.00642472 32L2.16962 24.0512C0.743958 21.6079 -0.0049306 18.8288 2.44299e-05 16C2.44299e-05 7.1632 7.16322 0 16 0ZM10.5472 8.47999L10.2272 8.49279C10.0203 8.50705 9.81817 8.56139 9.63202 8.65279C9.45854 8.75121 9.30012 8.87407 9.16162 9.01759C8.96962 9.19839 8.86082 9.35519 8.74402 9.50719C8.15221 10.2766 7.83358 11.2213 7.83842 12.192C7.84162 12.976 8.04642 13.7392 8.36642 14.4528C9.02082 15.896 10.0976 17.424 11.5184 18.84C11.8608 19.1808 12.1968 19.5232 12.5584 19.8416C14.3239 21.3958 16.4277 22.5167 18.7024 23.1152L19.6112 23.2544C19.9072 23.2704 20.2032 23.248 20.5008 23.2336C20.9667 23.209 21.4216 23.0829 21.8336 22.864C22.043 22.7557 22.2474 22.6383 22.4464 22.512C22.4464 22.512 22.5141 22.4661 22.6464 22.368C22.8624 22.208 22.9952 22.0944 23.1744 21.9072C23.3088 21.7685 23.4208 21.6075 23.5104 21.424C23.6352 21.1632 23.76 20.6656 23.8112 20.2512C23.8496 19.9344 23.8384 19.7616 23.8336 19.6544C23.8272 19.4832 23.6848 19.3056 23.5296 19.2304L22.5984 18.8128C22.5984 18.8128 21.2064 18.2064 20.3552 17.8192C20.2661 17.7804 20.1707 17.7582 20.0736 17.7536C19.9641 17.7421 19.8535 17.7544 19.7491 17.7894C19.6448 17.8245 19.5492 17.8815 19.4688 17.9568C19.4608 17.9536 19.3536 18.0448 18.1968 19.4464C18.1304 19.5356 18.039 19.603 17.9341 19.6401C17.8292 19.6771 17.7157 19.6821 17.608 19.6544C17.5037 19.6266 17.4016 19.5913 17.3024 19.5488C17.104 19.4656 17.0352 19.4336 16.8992 19.376C15.9806 18.9758 15.1303 18.4344 14.3792 17.7712C14.1776 17.5952 13.9904 17.4032 13.7984 17.2176C13.169 16.6147 12.6204 15.9328 12.1664 15.1888L12.072 15.0368C12.0052 14.9341 11.9505 14.824 11.9088 14.7088C11.848 14.4736 12.0064 14.2848 12.0064 14.2848C12.0064 14.2848 12.3952 13.8592 12.576 13.6288C12.752 13.4048 12.9008 13.1872 12.9968 13.032C13.1856 12.728 13.2448 12.416 13.1456 12.1744C12.6976 11.08 12.2347 9.99146 11.7568 8.90879C11.6624 8.69439 11.3824 8.54079 11.128 8.51039C11.0416 8.49973 10.9552 8.49119 10.8688 8.48479C10.654 8.47247 10.4386 8.47461 10.224 8.49119L10.5472 8.47999Z" fill="#F1B441"/>
</svg>
