<svg width="21" height="21" viewBox="0 0 21 21" fill="none" xmlns="http://www.w3.org/2000/svg">
<path d="M0.945469 13.0701C1.54547 12.8556 2.16547 12.7484 2.82547 12.7484C4.16547 12.7484 5.33547 13.1579 6.33547 13.9768L3.19547 17.0381C2.15344 15.8941 1.38495 14.5389 0.945469 13.0701ZM14.1655 8.36118C16.1355 9.79434 18.2655 10.1453 20.5455 9.41411C20.5755 9.61885 20.6055 9.98932 20.6055 10.506C20.6055 11.5102 20.3555 12.6314 19.8855 13.8696C19.4155 15.098 18.8355 16.0924 18.1555 16.8431L11.8255 10.6913L14.1655 8.36118ZM7.37547 15.0297C8.43547 16.5214 8.65547 18.1495 8.02547 19.9239C6.60547 19.5242 5.33547 18.9002 4.27547 18.0423L7.37547 15.0297ZM10.7955 11.6955L17.1055 17.8668C14.9355 19.7192 12.3855 20.4991 9.48547 20.1969C9.69547 19.5535 9.80547 18.8515 9.80547 18.0911C9.80547 17.4866 9.66547 16.7749 9.38547 15.9657C9.10547 15.1565 8.77547 14.4935 8.40547 13.9768L10.7955 11.6955ZM7.41547 12.9434C6.50403 12.149 5.38703 11.613 4.18547 11.3932C2.96547 11.169 1.79547 11.2372 0.665469 11.6077C0.635469 11.3932 0.605469 11.0228 0.605469 10.506C0.605469 9.50185 0.855469 8.38068 1.32547 7.14251C1.79547 5.91409 2.37547 4.91965 3.05547 4.16895L9.71547 10.6913L7.41547 12.9434ZM14.1655 6.34306C12.8255 4.73441 12.5155 2.97952 13.2355 1.08815C13.8555 1.24414 14.5655 1.53662 15.3655 1.98509C16.1555 2.42381 16.8055 2.86253 17.3055 3.28175L14.1655 6.34306ZM20.2655 7.9517C19.6655 8.15644 19.0455 8.26368 18.3855 8.26368C17.2955 8.26368 16.2455 7.9517 15.2455 7.30825L18.3355 4.33469C19.2155 5.40712 19.8555 6.60629 20.2655 7.9517ZM10.7955 9.63835L4.10547 3.14526C6.27547 1.29288 8.82547 0.512932 11.7355 0.815163C11.5155 1.45862 11.4055 2.16058 11.4055 2.92103C11.4055 3.62298 11.5655 4.41268 11.8955 5.29987C12.2255 6.17732 12.6055 6.87927 13.1055 7.39599L10.7955 9.63835Z" fill="#D9D9D9"/>
</svg>
