<svg width="16" height="16" viewBox="0 0 16 16" fill="none" xmlns="http://www.w3.org/2000/svg">
<path d="M11.1465 7.2C10.1143 7.2 9.97147 8.22857 9.97147 8.22857H12.1643C12.1643 8.22857 12.1786 7.2 11.1465 7.2ZM6.17147 8.22857H4.22861V10.0143H6.07504C6.35361 10.0071 6.87504 9.92857 6.87504 9.14643C6.87504 8.21785 6.17147 8.22857 6.17147 8.22857Z" fill="#0C0D01"/>
<path d="M8 0C3.58214 0 0 3.58214 0 8C0 12.4179 3.58214 16 8 16C12.4179 16 16 12.4179 16 8C16 3.58214 12.4179 0 8 0ZM9.68571 4.91429H12.4393V5.73571H9.68571V4.91429ZM8.29286 9.22857C8.29286 11.2643 6.17143 11.2 6.17143 11.2H2.7V4.52143H6.17143C7.22857 4.52143 8.06071 5.10357 8.06071 6.3C8.06071 7.49643 7.04286 7.57143 7.04286 7.57143C8.38571 7.57143 8.29286 9.22857 8.29286 9.22857ZM13.4429 9.11786H9.98214C9.98214 10.3571 11.1571 10.2786 11.1571 10.2786C12.2679 10.2786 12.2286 9.56071 12.2286 9.56071H13.4036C13.4036 11.4679 11.1179 11.3357 11.1179 11.3357C8.37857 11.3357 8.55357 8.78214 8.55357 8.78214C8.55357 8.78214 8.55 6.21786 11.1179 6.21786C13.8214 6.22143 13.4429 9.11786 13.4429 9.11786Z" fill="#0C0D01"/>
<path d="M6.6429 6.40357C6.6429 5.71072 6.17147 5.71072 6.17147 5.71072H4.22861V7.2H6.05004C6.36432 7.2 6.6429 7.09643 6.6429 6.40357Z" fill="#0C0D01"/>
</svg>
