<svg width="24" height="24" viewBox="0 0 24 24" fill="none" xmlns="http://www.w3.org/2000/svg">
<path d="M16.7197 10.8C15.1715 10.8 14.9572 12.3429 14.9572 12.3429H18.2465C18.2465 12.3429 18.2679 10.8 16.7197 10.8ZM9.2572 12.3429H6.34291V15.0214H9.11256C9.53041 15.0107 10.3126 14.8929 10.3126 13.7196C10.3126 12.3268 9.2572 12.3429 9.2572 12.3429Z" fill="#F1B441"/>
<path d="M12 0C5.37322 0 0 5.37322 0 12C0 18.6268 5.37322 24 12 24C18.6268 24 24 18.6268 24 12C24 5.37322 18.6268 0 12 0ZM14.5286 7.37143H18.6589V8.60357H14.5286V7.37143ZM12.4393 13.8429C12.4393 16.8964 9.25714 16.8 9.25714 16.8H4.05V6.78214H9.25714C10.8429 6.78214 12.0911 7.65536 12.0911 9.45C12.0911 11.2446 10.5643 11.3571 10.5643 11.3571C12.5786 11.3571 12.4393 13.8429 12.4393 13.8429ZM20.1643 13.6768H14.9732C14.9732 15.5357 16.7357 15.4179 16.7357 15.4179C18.4018 15.4179 18.3429 14.3411 18.3429 14.3411H20.1054C20.1054 17.2018 16.6768 17.0036 16.6768 17.0036C12.5679 17.0036 12.8304 13.1732 12.8304 13.1732C12.8304 13.1732 12.825 9.32679 16.6768 9.32679C20.7321 9.33214 20.1643 13.6768 20.1643 13.6768Z" fill="#F1B441"/>
<path d="M9.96434 9.60536C9.96434 8.56608 9.2572 8.56608 9.2572 8.56608H6.34291V10.8H9.07506C9.54648 10.8 9.96434 10.6446 9.96434 9.60536Z" fill="#F1B441"/>
</svg>
