<svg width="25" height="16" viewBox="0 0 25 16" fill="none" xmlns="http://www.w3.org/2000/svg">
<path d="M19.6055 5.98874C19.0455 5.98874 18.5155 6.09598 18.0155 6.26172L15.0655 0.626587H11.6055V2.08899H14.1455L15.0255 3.76588L12.6055 9.0403L10.8355 4.96506C11.1055 4.86756 11.3455 4.60433 11.3455 4.2826C11.3455 3.88288 11.0155 3.5514 10.6055 3.5514H8.60547C8.18547 3.5514 7.84547 3.88288 7.84547 4.2826C7.84547 4.68233 8.18547 5.0138 8.60547 5.0138H9.21547L11.4655 10.1322H10.5255C10.1655 7.79238 8.10547 5.98874 5.60547 5.98874C2.84547 5.98874 0.605469 8.1726 0.605469 10.8634C0.605469 13.5543 2.84547 15.7381 5.60547 15.7381C8.10547 15.7381 10.1655 13.9345 10.5255 11.5946H13.1055L15.8955 5.43303L16.6855 6.92468C16.0431 7.37326 15.5195 7.96441 15.1578 8.64929C14.7962 9.33416 14.6068 10.0931 14.6055 10.8634C14.6055 13.5543 16.8455 15.7381 19.6055 15.7381C22.3655 15.7381 24.6055 13.5543 24.6055 10.8634C24.6055 8.1726 22.3655 5.98874 19.6055 5.98874ZM5.60547 14.2757C3.67547 14.2757 2.10547 12.7451 2.10547 10.8634C2.10547 8.9818 3.67547 7.45115 5.60547 7.45115C7.27547 7.45115 8.67547 8.60157 9.01547 10.1322H4.60547V11.5946H9.01547C8.84564 12.3535 8.41496 13.0331 7.79479 13.5207C7.17462 14.0083 6.40218 14.2747 5.60547 14.2757ZM19.6055 14.2757C17.6755 14.2757 16.1055 12.7451 16.1055 10.8634C16.1055 9.8105 16.6055 8.88431 17.3755 8.26035L19.1755 11.6921L20.4955 10.9902L18.7055 7.57789C18.9955 7.50964 19.2955 7.45115 19.6055 7.45115C21.5355 7.45115 23.1055 8.9818 23.1055 10.8634C23.1055 12.7451 21.5355 14.2757 19.6055 14.2757Z" fill="#D9D9D9"/>
</svg>
