<svg width="20" height="21" viewBox="0 0 20 21" fill="none" xmlns="http://www.w3.org/2000/svg">
<path d="M10.127 0.751831C8.35695 0.751831 6.79695 1.89251 6.29695 3.5499C5.76695 3.31592 5.20695 3.18917 4.62695 3.18917C3.56609 3.18917 2.54867 3.60004 1.79853 4.33138C1.04838 5.06273 0.626953 6.05465 0.626953 7.08892C0.629322 7.95256 0.924947 8.79112 1.46767 9.47369C2.0104 10.1563 2.76967 10.6444 3.62695 10.8619V17.8132H16.627V10.8619C18.387 10.4135 19.627 8.86331 19.627 7.08892C19.627 6.05465 19.2055 5.06273 18.4554 4.33138C17.7052 3.60004 16.6878 3.18917 15.627 3.18917C15.047 3.18917 14.487 3.31592 13.957 3.5499C13.457 1.89251 11.897 0.751831 10.127 0.751831ZM9.62695 9.52627H10.627V16.3508H9.62695V9.52627ZM6.62695 11.4761H7.62695V16.3508H6.62695V11.4761ZM12.627 11.4761H13.627V16.3508H12.627V11.4761ZM3.62695 18.7882V19.7631C3.62695 20.0217 3.73231 20.2697 3.91985 20.4525C4.10738 20.6353 4.36174 20.738 4.62695 20.738H15.627C15.8922 20.738 16.1465 20.6353 16.3341 20.4525C16.5216 20.2697 16.627 20.0217 16.627 19.7631V18.7882H3.62695Z" fill="#D9D9D9"/>
</svg>
