<svg width="20" height="21" viewBox="0 0 20 21" fill="none" xmlns="http://www.w3.org/2000/svg">
<path d="M10.1272 0.751831C8.3572 0.751831 6.7972 1.89251 6.2972 3.5499C5.7672 3.31592 5.2072 3.18917 4.6272 3.18917C3.56633 3.18917 2.54892 3.60004 1.79877 4.33138C1.04862 5.06273 0.627197 6.05465 0.627197 7.08892C0.629567 7.95256 0.925191 8.79112 1.46792 9.47369C2.01064 10.1563 2.76992 10.6444 3.6272 10.8619V17.8132H16.6272V10.8619C18.3872 10.4135 19.6272 8.86331 19.6272 7.08892C19.6272 6.05465 19.2058 5.06273 18.4556 4.33138C17.7055 3.60004 16.6881 3.18917 15.6272 3.18917C15.0472 3.18917 14.4872 3.31592 13.9572 3.5499C13.4572 1.89251 11.8972 0.751831 10.1272 0.751831ZM9.6272 9.52627H10.6272V16.3508H9.6272V9.52627ZM6.6272 11.4761H7.6272V16.3508H6.6272V11.4761ZM12.6272 11.4761H13.6272V16.3508H12.6272V11.4761ZM3.6272 18.7882V19.7631C3.6272 20.0217 3.73255 20.2697 3.92009 20.4525C4.10763 20.6353 4.36198 20.738 4.6272 20.738H15.6272C15.8924 20.738 16.1468 20.6353 16.3343 20.4525C16.5218 20.2697 16.6272 20.0217 16.6272 19.7631V18.7882H3.6272Z" fill="#F1B441"/>
</svg>
