<svg width="21" height="17" viewBox="0 0 21 17" fill="none" xmlns="http://www.w3.org/2000/svg">
<path d="M18.9 0H2.1C0.945 0 0.0105 0.95625 0.0105 2.125L0 14.875C0 16.0438 0.945 17 2.1 17H18.9C20.055 17 21 16.0438 21 14.875V2.125C21 0.95625 20.055 0 18.9 0ZM18.48 4.51562L11.0565 9.21187C10.7205 9.42438 10.2795 9.42438 9.9435 9.21187L2.52 4.51562C2.41471 4.45582 2.32251 4.37502 2.24898 4.27811C2.17545 4.1812 2.12212 4.0702 2.0922 3.95183C2.06229 3.83346 2.05643 3.71018 2.07496 3.58945C2.0935 3.46872 2.13605 3.35305 2.20005 3.24944C2.26404 3.14584 2.34814 3.05645 2.44726 2.98668C2.54638 2.91692 2.65846 2.86823 2.77672 2.84357C2.89498 2.8189 3.01695 2.81878 3.13525 2.84319C3.25356 2.86761 3.36574 2.91607 3.465 2.98563L10.5 7.4375L17.535 2.98563C17.6343 2.91607 17.7464 2.86761 17.8647 2.84319C17.9831 2.81878 18.105 2.8189 18.2233 2.84357C18.3415 2.86823 18.4536 2.91692 18.5527 2.98668C18.6519 3.05645 18.736 3.14584 18.8 3.24944C18.8639 3.35305 18.9065 3.46872 18.925 3.58945C18.9436 3.71018 18.9377 3.83346 18.9078 3.95183C18.8779 4.0702 18.8245 4.1812 18.751 4.27811C18.6775 4.37502 18.5853 4.45582 18.48 4.51562Z" fill="#0C0D01"/>
</svg>
