<svg width="22" height="22" viewBox="0 0 22 22" fill="none" xmlns="http://www.w3.org/2000/svg">
<path d="M17.6271 14.0039V10.5916C17.6271 10.3331 17.5218 10.0851 17.3342 9.90226C17.1467 9.71942 16.8923 9.6167 16.6271 9.6167H15.6271C17.8671 8.04705 18.3871 5.00525 16.7771 2.79214C15.998 1.74796 14.8272 1.04625 13.5198 0.839899C12.2124 0.633547 10.8744 0.93927 9.79712 1.69046C9.12712 2.15843 8.58712 2.79214 8.22712 3.50385C7.6683 3.16632 7.04652 2.93989 6.39758 2.83758C5.74864 2.73527 5.08535 2.7591 4.4459 2.90771C3.80645 3.05632 3.20345 3.32677 2.67164 3.70348C2.13982 4.0802 1.68967 4.55574 1.34712 5.10274C1.0029 5.64811 0.772264 6.25425 0.668391 6.88654C0.564518 7.51884 0.589443 8.16489 0.741741 8.78778C0.89404 9.41068 1.17073 9.99822 1.556 10.5168C1.94127 11.0355 2.42757 11.475 2.98712 11.8103C3.19712 11.9273 3.40712 12.054 3.62712 12.132V20.341C3.62712 20.5996 3.73248 20.8476 3.92001 21.0304C4.10755 21.2132 4.3619 21.316 4.62712 21.316H16.6271C16.8923 21.316 17.1467 21.2132 17.3342 21.0304C17.5218 20.8476 17.6271 20.5996 17.6271 20.341V16.9287L21.6271 20.8285V10.1042L17.6271 14.0039ZM12.6271 3.76708C13.1576 3.76708 13.6663 3.97251 14.0413 4.33818C14.4164 4.70386 14.6271 5.19981 14.6271 5.71695C14.6271 6.23409 14.4164 6.73005 14.0413 7.09572C13.6663 7.4614 13.1576 7.66683 12.6271 7.66683C12.0967 7.66683 11.588 7.4614 11.2129 7.09572C10.8378 6.73005 10.6271 6.23409 10.6271 5.71695C10.6271 5.19981 10.8378 4.70386 11.2129 4.33818C11.588 3.97251 12.0967 3.76708 12.6271 3.76708ZM5.62712 5.71695C6.15755 5.71695 6.66626 5.92239 7.04133 6.28806C7.41641 6.65373 7.62712 7.14969 7.62712 7.66683C7.62712 8.18397 7.41641 8.67992 7.04133 9.0456C6.66626 9.41127 6.15755 9.6167 5.62712 9.6167C5.09669 9.6167 4.58798 9.41127 4.21291 9.0456C3.83783 8.67992 3.62712 8.18397 3.62712 7.66683C3.62712 7.14969 3.83783 6.65373 4.21291 6.28806C4.58798 5.92239 5.09669 5.71695 5.62712 5.71695Z" fill="#F1B441"/>
</svg>
