<svg width="38" height="11" viewBox="0 0 38 11" fill="none" xmlns="http://www.w3.org/2000/svg">
<path d="M26.9867 8.26895C26.9866 8.66076 27.1056 9.04381 27.3288 9.36967C27.5519 9.69552 27.8692 9.94953 28.2404 10.0996C28.6116 10.2496 29.0202 10.289 29.4144 10.2126C29.8085 10.1363 30.1707 9.94769 30.4549 9.6707C30.7391 9.39371 30.9327 9.04076 31.0112 8.65649C31.0896 8.27222 31.0494 7.8739 30.8957 7.5119C30.7419 7.1499 30.4815 6.84049 30.1474 6.6228C29.8132 6.40511 29.4204 6.28891 29.0185 6.28891C28.4799 6.28934 27.9635 6.49806 27.5826 6.86927C27.2017 7.24049 26.9874 7.74387 26.9867 8.26895ZM6.27619 6.28891C6.67784 6.28907 7.07042 6.40533 7.4043 6.623C7.73818 6.84066 7.99836 7.14996 8.15196 7.51178C8.30555 7.8736 8.34565 8.27169 8.26719 8.65573C8.18874 9.03977 7.99524 9.3925 7.71118 9.66934C7.42711 9.94617 7.06523 10.1347 6.67129 10.211C6.27735 10.2873 5.86904 10.2481 5.49798 10.0982C5.12692 9.94831 4.80978 9.69452 4.58665 9.36892C4.36352 9.04333 4.24443 8.66054 4.24443 8.26895C4.24508 7.74401 4.45927 7.24075 4.84 6.86955C5.22074 6.49836 5.73694 6.28955 6.27538 6.28891H6.27619ZM0 0.581029H5.50507L4.39096 4.51398L11.9221 0.501221H16.6175L16.7207 3.26897L19.3402 4.44694L20.3012 3.29451H21.5799L21.8386 4.57144C33.0992 3.53393 37.6056 6.89945 37.6056 6.89945C37.6056 6.89945 36.99 7.29849 35.483 7.56904C35.1654 7.8332 35.1834 8.72147 35.1834 8.72147H37.1644V9.9984H32.9077V7.80527C32.757 7.81086 32.5434 7.83799 32.3297 7.84278C32.2665 7.37573 32.1001 6.92761 31.842 6.52934C31.5839 6.13106 31.2403 5.79211 30.8348 5.53587C30.4293 5.27963 29.9717 5.1122 29.4934 5.04512C29.0151 4.97805 28.5276 5.01293 28.0645 5.14736C27.6013 5.2818 27.1736 5.51258 26.8109 5.82378C26.4481 6.13499 26.1589 6.51922 25.9632 6.94996C25.7676 7.3807 25.67 7.8477 25.6774 8.31875C25.6848 8.78979 25.7969 9.25366 26.0061 9.67837H9.287C9.5038 9.23746 9.61599 8.75461 9.61525 8.26566C9.61451 7.7767 9.50087 7.29419 9.28274 6.8539C9.06461 6.41361 8.7476 6.02685 8.35523 5.72232C7.96286 5.41779 7.50519 5.20329 7.01618 5.09474C6.52717 4.9862 6.01936 4.98639 5.53044 5.0953C5.04151 5.20421 4.58401 5.41905 4.19188 5.72388C3.79974 6.0287 3.48304 6.4157 3.26526 6.85615C3.04748 7.2966 2.93421 7.7792 2.93386 8.26816C2.93386 8.36712 2.93877 8.46449 2.94777 8.56105H0.000818617L0 0.581029Z" fill="#D9D9D9"/>
</svg>
