<svg width="24" height="24" viewBox="0 0 24 24" fill="none" xmlns="http://www.w3.org/2000/svg">
<path fill-rule="evenodd" clip-rule="evenodd" d="M11.9985 0C5.373 0 0 5.50878 0 12.3032C0 17.7382 3.438 22.3504 8.2065 23.9775C8.8065 24.0898 9.0255 23.7099 9.0255 23.3839C9.0255 23.0917 9.015 22.3181 9.009 21.2908C5.6715 22.0336 4.9665 19.6421 4.9665 19.6421C4.4205 18.2211 3.6345 17.8428 3.6345 17.8428C2.5455 17.08 3.717 17.0954 3.717 17.0954C4.9215 17.183 5.5545 18.3626 5.5545 18.3626C6.6255 20.2435 8.3625 19.7006 9.0465 19.3853C9.156 18.5902 9.465 18.0473 9.8085 17.7413C7.1445 17.4306 4.3425 16.3756 4.3425 11.6604C4.3425 10.3178 4.8105 9.21974 5.577 8.35852C5.4555 8.04786 5.043 6.79601 5.697 5.10277C5.697 5.10277 6.705 4.77212 8.997 6.36385C9.954 6.09164 10.98 5.95477 12 5.95016C13.0185 5.95477 14.046 6.09164 15.0045 6.36385C17.295 4.77212 18.3015 5.10277 18.3015 5.10277C18.9555 6.79601 18.5445 8.04786 18.4215 8.35852C19.191 9.21821 19.6545 10.3163 19.6545 11.6604C19.6545 16.3864 16.8495 17.4275 14.175 17.7321C14.6055 18.1119 14.9895 18.8624 14.9895 20.0097C14.9895 21.6537 14.9745 22.9809 14.9745 23.3854C14.9745 23.7145 15.1905 24.0974 15.7995 23.9775C20.565 22.3458 24 17.7382 24 12.3032C24 5.50878 18.627 0 11.9985 0Z" fill="#D9D9D9"/>
</svg>
