<svg width="16" height="16" viewBox="0 0 16 16" fill="none" xmlns="http://www.w3.org/2000/svg">
<path d="M12.25 0H3.75C1.67893 0 0 1.67893 0 3.75V12.25C0 14.3211 1.67893 16 3.75 16H12.25C14.3211 16 16 14.3211 16 12.25V3.75C16 1.67893 14.3211 0 12.25 0Z" fill="#F1B441"/>
<path d="M12.25 0H3.75C1.67893 0 0 1.67893 0 3.75V12.25C0 14.3211 1.67893 16 3.75 16H12.25C14.3211 16 16 14.3211 16 12.25V3.75C16 1.67893 14.3211 0 12.25 0Z" fill="#0C0D01"/>
<path d="M11.5447 13.6053H13.374C13.4403 13.6053 13.5039 13.579 13.5508 13.5321C13.5977 13.4852 13.624 13.4217 13.624 13.3554L13.625 9.49025C13.625 7.47006 13.1897 5.91725 10.8289 5.91725C9.93142 5.88388 9.0851 6.3465 8.62842 7.119C8.62618 7.12275 8.62279 7.12567 8.61874 7.12731C8.61469 7.12895 8.61022 7.12922 8.60601 7.12808C8.60179 7.12694 8.59806 7.12445 8.5954 7.12099C8.59273 7.11754 8.59127 7.1133 8.59123 7.10894V6.35375C8.59123 6.28745 8.56489 6.22386 8.51801 6.17697C8.47112 6.13009 8.40753 6.10375 8.34123 6.10375H6.60517C6.53886 6.10375 6.47528 6.13009 6.42839 6.17697C6.38151 6.22386 6.35517 6.28745 6.35517 6.35375V13.355C6.35517 13.4213 6.38151 13.4849 6.42839 13.5318C6.47528 13.5787 6.53886 13.605 6.60517 13.605H8.43442C8.50072 13.605 8.56431 13.5787 8.61119 13.5318C8.65808 13.4849 8.68442 13.4213 8.68442 13.355V9.89419C8.68442 8.91563 8.87004 7.96794 10.0832 7.96794C11.2792 7.96794 11.2947 9.08769 11.2947 9.95756V13.3553C11.2947 13.4216 11.321 13.4852 11.3679 13.5321C11.4148 13.579 11.4784 13.6053 11.5447 13.6053ZM2.37498 3.72675C2.37498 4.46825 2.98542 5.07837 3.72698 5.07837C4.46835 5.07831 5.07842 4.46781 5.07842 3.72644C5.07829 2.98506 4.46817 2.375 3.72673 2.375C2.9851 2.375 2.37498 2.98525 2.37498 3.72675ZM2.80992 13.6053H4.6416C4.70791 13.6053 4.7715 13.579 4.81838 13.5321C4.86527 13.4852 4.8916 13.4216 4.8916 13.3553V6.35375C4.8916 6.28745 4.86527 6.22386 4.81838 6.17697C4.7715 6.13009 4.70791 6.10375 4.6416 6.10375H2.80992C2.74361 6.10375 2.68002 6.13009 2.63314 6.17697C2.58626 6.22386 2.55992 6.28745 2.55992 6.35375V13.3553C2.55992 13.4216 2.58626 13.4852 2.63314 13.5321C2.68002 13.579 2.74361 13.6053 2.80992 13.6053Z" fill="#F1B441"/>
</svg>
