<svg width="40" height="32" viewBox="0 0 40 32" fill="none" xmlns="http://www.w3.org/2000/svg">
<path d="M0 4C0 1.79086 1.79086 0 4 0H36C38.2091 0 40 1.79086 40 4V28C40 30.2091 38.2091 32 36 32H4C1.79086 32 0 30.2091 0 28V4Z" fill="#404040"/>
<path fill-rule="evenodd" clip-rule="evenodd" d="M32.921 4.2959H7.07904C6.10732 4.2959 5.31959 5.06949 5.31959 6.02376V24.9762C5.31959 25.9305 6.10732 26.7041 7.07904 26.7041H32.921C33.8927 26.7041 34.6804 25.9305 34.6804 24.9762V6.02376C34.6804 5.06949 33.8927 4.2959 32.921 4.2959ZM7.07904 3C5.37853 3 4 4.35378 4 6.02376V24.9762C4 26.6462 5.37853 28 7.07904 28H32.921C34.6215 28 36 26.6462 36 24.9762V6.02376C36 4.35378 34.6215 3 32.921 3H7.07904Z" fill="#D9D9D9"/>
<path d="M18.7354 14.2041V24.7063H20.11V17.4168L24.8385 23.1404L29.7869 17.4168V24.7063H31.1615V14.2041L24.8385 21.2505L18.7354 14.2041Z" fill="#D9D9D9"/>
<path d="M14.7216 9.37149H5.31959V8.12959H19.0928L24.8385 14.6901L30.3368 8.12959H34.6804V9.37149H31.1615L24.8385 16.6069L18.7354 9.37149H15.9863V24.7063H7.40893V11.7473H9.4433V22.9784H14.7216V9.37149Z" fill="#D9D9D9"/>
<path d="M8.72852 6.23974C8.72852 6.59759 8.43312 6.88769 8.06873 6.88769C7.70433 6.88769 7.40893 6.59759 7.40893 6.23974C7.40893 5.88189 7.70433 5.59179 8.06873 5.59179C8.43312 5.59179 8.72852 5.88189 8.72852 6.23974Z" fill="#D9D9D9"/>
<path d="M10.7079 6.23974C10.7079 6.59759 10.4125 6.88769 10.0481 6.88769C9.68372 6.88769 9.38832 6.59759 9.38832 6.23974C9.38832 5.88189 9.68372 5.59179 10.0481 5.59179C10.4125 5.59179 10.7079 5.88189 10.7079 6.23974Z" fill="#D9D9D9"/>
<path d="M12.6873 6.23974C12.6873 6.59759 12.3919 6.88769 12.0275 6.88769C11.6631 6.88769 11.3677 6.59759 11.3677 6.23974C11.3677 5.88189 11.6631 5.59179 12.0275 5.59179C12.3919 5.59179 12.6873 5.88189 12.6873 6.23974Z" fill="#D9D9D9"/>
</svg>
