<svg width="133" height="28" viewBox="0 0 133 28" fill="none" xmlns="http://www.w3.org/2000/svg">
<path d="M130.757 22.4C130.239 22.4 129.791 22.2161 129.412 21.8482C129.033 21.4803 128.844 21.0102 128.844 20.438C128.844 19.8044 129.063 19.273 129.502 18.8438C129.96 18.4146 130.488 18.2 131.086 18.2C131.704 18.2 132.173 18.3942 132.492 18.7825C132.831 19.1504 133 19.6102 133 20.162C133 20.8365 132.781 21.3781 132.342 21.7869C131.904 22.1956 131.375 22.4 130.757 22.4Z" fill="#F2F2F2"/>
<path d="M118.646 19.9754C118.829 20.2419 119.212 20.4817 119.796 20.6948C120.398 20.908 121.027 21.0145 121.684 21.0145C122.724 21.0145 123.49 20.8191 123.983 20.4284C124.475 20.0376 124.722 19.4958 124.722 18.8031C124.722 18.3235 124.567 17.9061 124.256 17.5509C123.946 17.1956 123.508 16.8848 122.943 16.6183C122.396 16.3341 121.602 15.9967 120.562 15.6059C119.157 15.0908 118.126 14.478 117.47 13.7675C116.831 13.0392 116.512 12.0889 116.512 10.9166C116.512 10.1351 116.749 9.45121 117.223 8.86505C117.716 8.2789 118.382 7.82595 119.221 7.50623C120.079 7.16874 121.027 7 122.067 7C122.906 7 123.636 7.06217 124.256 7.1865C124.895 7.31084 125.406 7.43518 125.789 7.55952C126.172 7.68385 126.428 7.76378 126.555 7.79931V11.1031H124.886L124.339 9.13149C124.229 8.91834 123.937 8.74072 123.463 8.59862C122.989 8.43876 122.459 8.35882 121.876 8.35882C121.055 8.35882 120.389 8.53645 119.878 8.89169C119.385 9.24694 119.139 9.72653 119.139 10.3304C119.139 10.8633 119.267 11.3074 119.522 11.6626C119.796 12.0001 120.133 12.2754 120.535 12.4886C120.936 12.7017 121.483 12.9504 122.177 13.2346L122.724 13.4478C123.746 13.8385 124.576 14.2115 125.214 14.5668C125.853 14.922 126.382 15.3927 126.802 15.9789C127.239 16.5473 127.458 17.2489 127.458 18.0837C127.458 19.3982 126.929 20.4461 125.871 21.2277C124.831 22.0092 123.399 22.4 121.575 22.4C120.681 22.4 119.741 22.2845 118.756 22.0536C117.789 21.805 116.995 21.5563 116.375 21.3076V17.8972H118.154L118.646 19.9754Z" fill="#F2F2F2"/>
<path d="M102.521 18.1104C102.521 16.4407 103.317 15.2151 104.908 14.4336C106.499 13.6343 108.514 13.208 110.952 13.1547V12.4086C110.952 11.5738 110.867 10.9166 110.698 10.437C110.529 9.95744 110.232 9.61107 109.809 9.39792C109.403 9.16701 108.819 9.05156 108.057 9.05156C107.193 9.05156 106.415 9.18478 105.721 9.45121C105.043 9.69989 104.366 10.0107 103.689 10.3837L103.054 8.99827C103.274 8.80289 103.681 8.54533 104.273 8.2256C104.866 7.90588 105.551 7.62168 106.33 7.37301C107.109 7.12433 107.888 7 108.666 7C109.868 7 110.816 7.17763 111.511 7.53287C112.222 7.87036 112.729 8.42099 113.034 9.18478C113.339 9.94856 113.491 10.9699 113.491 12.2488V20.8014H114.99V21.9737C114.651 22.0625 114.219 22.1513 113.694 22.2401C113.187 22.3289 112.738 22.3734 112.349 22.3734C111.875 22.3734 111.553 22.2934 111.384 22.1336C111.214 21.9915 111.13 21.6629 111.13 21.1477V20.2685C110.622 20.8014 109.995 21.2898 109.25 21.7339C108.522 22.178 107.693 22.4 106.762 22.4C105.543 22.4 104.527 22.0359 103.714 21.3076C102.919 20.5616 102.521 19.4958 102.521 18.1104ZM107.854 20.5882C108.294 20.5882 108.802 20.4461 109.377 20.1619C109.953 19.8777 110.478 19.5402 110.952 19.1495V14.5668C109.106 14.5668 107.71 14.8687 106.762 15.4727C105.831 16.0588 105.365 16.8315 105.365 17.7907C105.365 18.7498 105.585 19.4603 106.025 19.9221C106.482 20.3662 107.092 20.5882 107.854 20.5882Z" fill="#F2F2F2"/>
<path d="M86.7811 1.99658L84.5104 1.69573V0.51966L88.9167 0H88.9708L89.5655 0.410257V6.75555L89.4574 9.08034C90.0341 8.55157 90.827 8.05014 91.8362 7.57607C92.8454 7.102 93.8637 6.86496 94.8909 6.86496C96.0263 6.86496 96.9093 7.08376 97.5401 7.52137C98.1708 7.95897 98.6124 8.63362 98.8647 9.5453C99.117 10.4387 99.2431 11.6513 99.2431 13.1829V20.8137L101.135 21.0598V22.4H94.6746V21.0598L96.4317 20.8137V13.1556C96.4317 12.0798 96.3597 11.241 96.2155 10.6393C96.0713 10.0194 95.801 9.56353 95.4045 9.2718C95.008 8.96183 94.4133 8.80684 93.6204 8.80684C92.9716 8.80684 92.2778 8.97094 91.5389 9.29914C90.8 9.62735 90.1512 10.0103 89.5925 10.4479V20.8137L91.4578 21.0598V22.4H85.1592V21.0598L86.7811 20.841V1.99658Z" fill="#F2F2F2"/>
<path d="M68.4818 9.44014L66.5 8.95211V7.48802L70.436 7H70.5186L71.0966 7.48802V8.62676L71.0691 9.27746C71.7297 8.69906 72.6013 8.17488 73.684 7.70493C74.7666 7.23497 75.8034 7 76.7943 7C77.9503 7 78.8403 7.2169 79.4642 7.6507C80.1064 8.08451 80.556 8.75329 80.8129 9.65704C81.0698 10.5427 81.1983 11.7447 81.1983 13.263V20.8546L83.125 21.0444V22.4H76.6016V21.0715L78.3082 20.8546V13.2359C78.3082 12.1695 78.2348 11.338 78.088 10.7415C77.9412 10.127 77.6659 9.67512 77.2622 9.38591C76.8585 9.07864 76.2713 8.925 75.5006 8.925C74.84 8.925 74.1336 9.08767 73.3812 9.41302C72.6289 9.73838 71.9591 10.118 71.3719 10.5518V20.8275L73.2436 21.0715V22.4H66.7477V21.0715L68.4818 20.8275V9.44014Z" fill="#F2F2F2"/>
<path d="M61.3504 3.89811C60.7928 3.89811 60.3745 3.72862 60.0957 3.38966C59.8169 3.05069 59.6775 2.61757 59.6775 2.09029C59.6775 1.48768 59.843 0.98865 60.1741 0.593191C60.5227 0.19773 60.9932 0 61.5857 0C62.1782 0 62.6139 0.169482 62.8927 0.508448C63.1715 0.847414 63.3109 1.28054 63.3109 1.80782C63.3109 2.44808 63.1367 2.95653 62.7881 3.33316C62.457 3.70979 61.9865 3.89811 61.3766 3.89811H61.3504ZM60.3048 8.89786L58.3182 8.3894V6.89231L62.3699 6.35561H62.4222L63.0234 6.86406V20.7899L65.1146 21.0159V22.4H58.1875V21.0159L60.3048 20.7617V8.89786Z" fill="#F2F2F2"/>
<path d="M32.3788 26.7845L35.4267 26.5V22.3362L35.5091 20.2155C34.9599 20.7328 34.2918 21.1638 33.5046 21.5086C32.7358 21.8535 31.8846 22.0259 30.951 22.0259C29.8709 22.0259 28.8732 21.7672 27.958 21.25C27.0427 20.7155 26.3104 19.9138 25.7613 18.8448C25.2121 17.7586 24.9375 16.4224 24.9375 14.8362C24.9375 13.3707 25.2579 12.0431 25.8986 10.8535C26.5393 9.6638 27.4545 8.72414 28.6444 8.03448C29.8526 7.34483 31.2713 7 32.9005 7C33.9623 7 35.0789 7.15517 36.2505 7.46552L37.7607 7.07759L38.2824 7.51724V26.5259L40.1771 26.7845V28H32.3788V26.7845ZM32.1042 20.2931C32.7998 20.2931 33.4405 20.1552 34.0263 19.8793C34.6121 19.5862 35.0789 19.2672 35.4267 18.9224V9.12069C35.3169 8.9138 34.9874 8.73276 34.4382 8.57759C33.889 8.40518 33.3033 8.31896 32.6809 8.31896C31.2896 8.31896 30.1638 8.84483 29.3034 9.89655C28.4614 10.931 28.0403 12.5172 28.0403 14.6552C28.0403 16.5 28.4156 17.9052 29.1661 18.8707C29.935 19.819 30.9143 20.2931 32.1042 20.2931Z" fill="#F2F2F2"/>
<path d="M20.9171 22.3467C20.41 22.3467 20.0297 22.249 19.7761 22.0536C19.5407 21.8582 19.423 21.5385 19.423 21.0945V20.1886C18.8254 20.7747 18.0738 21.2898 17.1683 21.7339C16.2809 22.178 15.3845 22.4 14.479 22.4C12.7947 22.4 11.5995 21.9559 10.8932 21.0678C10.1869 20.1797 9.83374 18.7143 9.83374 16.6716V8.94498L8.3125 8.51869V7.34637L12.1156 7H12.1428L12.6589 7.31972V16.4585C12.6589 17.4887 12.7313 18.2969 12.8762 18.883C13.0392 19.4514 13.3109 19.8777 13.6912 20.1619C14.0896 20.4284 14.6601 20.5616 15.4026 20.5616C16.127 20.5616 16.8061 20.4106 17.44 20.1086C18.0738 19.8067 18.6262 19.4514 19.097 19.0429V8.94498L17.1411 8.51869V7.34637L21.2702 7H21.2974L21.9222 7.31972V20.7481H23.5521L23.5249 21.9471C23.0178 22.0714 22.5741 22.1691 22.1938 22.2401C21.8316 22.3112 21.406 22.3467 20.9171 22.3467Z" fill="#F2F2F2"/>
<path d="M54.1671 22.3467C53.66 22.3467 53.2797 22.249 53.0261 22.0536C52.7907 21.8582 52.673 21.5385 52.673 21.0945V20.1886C52.0754 20.7747 51.3238 21.2898 50.4183 21.7339C49.5309 22.178 48.6345 22.4 47.729 22.4C46.0447 22.4 44.8495 21.9559 44.1432 21.0678C43.4369 20.1797 43.0837 18.7143 43.0837 16.6716V8.94498L41.5625 8.51869V7.34637L45.3656 7H45.3928L45.9089 7.31972V16.4585C45.9089 17.4887 45.9813 18.2969 46.1262 18.883C46.2892 19.4514 46.5609 19.8777 46.9412 20.1619C47.3396 20.4284 47.9101 20.5616 48.6526 20.5616C49.377 20.5616 50.0561 20.4106 50.6899 20.1086C51.3238 19.8067 51.8762 19.4514 52.347 19.0429V8.94498L50.3911 8.51869V7.34637L54.5202 7H54.5474L55.1722 7.31972V20.7481H56.8021L56.7749 21.9471C56.2678 22.0714 55.8241 22.1691 55.4438 22.2401C55.0816 22.3112 54.656 22.3467 54.1671 22.3467Z" fill="#F2F2F2"/>
<path d="M2.07812 1.99658L0 1.69573V0.51966L4.13059 0H4.18191L4.74634 0.410257V20.841L6.92708 21.0598V22.4H0V21.0598L2.07812 20.8137V1.99658Z" fill="#F2F2F2"/>
</svg>
