<svg width="115" height="24" viewBox="0 0 115 24" fill="none" xmlns="http://www.w3.org/2000/svg">
<path d="M112.847 19.2C112.4 19.2 112.013 19.0423 111.686 18.727C111.359 18.4117 111.196 18.0088 111.196 17.5182C111.196 16.9752 111.385 16.5197 111.763 16.1518C112.159 15.7839 112.615 15.6 113.131 15.6C113.664 15.6 114.069 15.7664 114.344 16.0993C114.636 16.4146 114.783 16.8088 114.783 17.2818C114.783 17.8599 114.593 18.3241 114.215 18.6745C113.836 19.0248 113.381 19.2 112.847 19.2Z" fill="#F2F2F2"/>
<path d="M102.395 17.1218C102.553 17.3502 102.883 17.5557 103.387 17.7384C103.907 17.9211 104.45 18.0125 105.017 18.0125C105.914 18.0125 106.575 17.845 107.001 17.51C107.426 17.1751 107.638 16.7107 107.638 16.117C107.638 15.7059 107.504 15.3481 107.237 15.0436C106.969 14.7391 106.591 14.4727 106.103 14.2443C105.631 14.0007 104.946 13.7114 104.048 13.3765C102.836 12.9349 101.946 12.4097 101.379 11.8007C100.828 11.1765 100.553 10.3619 100.553 9.35709C100.553 8.6872 100.758 8.10104 101.167 7.59862C101.592 7.0962 102.167 6.70796 102.891 6.43391C103.631 6.14464 104.45 6 105.347 6C106.072 6 106.701 6.05329 107.237 6.15986C107.788 6.26643 108.229 6.37301 108.559 6.47959C108.89 6.58616 109.11 6.65467 109.221 6.68512V9.51695H107.78L107.308 7.82699C107.213 7.64429 106.961 7.49204 106.552 7.37024C106.142 7.23322 105.686 7.1647 105.182 7.1647C104.473 7.1647 103.899 7.31695 103.458 7.62145C103.033 7.92595 102.82 8.33702 102.82 8.85467C102.82 9.31142 102.93 9.69204 103.151 9.99654C103.387 10.2858 103.678 10.5218 104.025 10.7045C104.371 10.8872 104.843 11.1003 105.442 11.3439L105.914 11.5266C106.796 11.8616 107.512 12.1813 108.063 12.4858C108.614 12.7903 109.071 13.1938 109.433 13.6962C109.811 14.1834 110 14.7848 110 15.5003C110 16.627 109.543 17.5253 108.63 18.1952C107.733 18.865 106.497 19.2 104.922 19.2C104.151 19.2 103.34 19.101 102.49 18.9031C101.655 18.69 100.97 18.4768 100.435 18.2637V15.3405H101.97L102.395 17.1218Z" fill="#F2F2F2"/>
<path d="M88.4783 15.5232C88.4783 14.092 89.165 13.0415 90.5384 12.3716C91.9118 11.6865 93.6505 11.3211 95.7544 11.2754V10.636C95.7544 9.92041 95.6814 9.3571 95.5353 8.94602C95.3892 8.53495 95.1335 8.23806 94.7682 8.05536C94.4176 7.85744 93.9135 7.75848 93.256 7.75848C92.5108 7.75848 91.8388 7.87267 91.2397 8.10104C90.6553 8.31419 90.0708 8.58062 89.4864 8.90034L88.9385 7.71281C89.1284 7.54533 89.4791 7.32457 89.9905 7.05052C90.5019 6.77647 91.0936 6.53287 91.7657 6.31972C92.4378 6.10657 93.1099 6 93.782 6C94.8194 6 95.6376 6.15225 96.2366 6.45675C96.8503 6.74602 97.2886 7.218 97.5516 7.87267C97.8146 8.52734 97.9461 9.40277 97.9461 10.499V17.8298H99.2391V18.8346C98.9469 18.9107 98.5743 18.9868 98.1214 19.063C97.6831 19.1391 97.2959 19.1772 96.9598 19.1772C96.5507 19.1772 96.2731 19.1087 96.127 18.9716C95.9809 18.8498 95.9079 18.5682 95.9079 18.1266V17.373C95.4695 17.8298 94.9289 18.2484 94.2861 18.6291C93.6578 19.0097 92.9419 19.2 92.1383 19.2C91.0863 19.2 90.2096 18.8879 89.5083 18.2637C88.8216 17.6242 88.4783 16.7107 88.4783 15.5232ZM93.0807 17.6471C93.4605 17.6471 93.8989 17.5253 94.3956 17.2817C94.8924 17.0381 95.3453 16.7488 95.7544 16.4138V12.4858C94.1619 12.4858 92.9565 12.7446 92.1383 13.2623C91.3347 13.7647 90.9329 14.427 90.9329 15.2491C90.9329 16.0713 91.1228 16.6803 91.5027 17.0761C91.8972 17.4567 92.4232 17.6471 93.0807 17.6471Z" fill="#F2F2F2"/>
<path d="M74.8945 1.71135L72.9348 1.45348V0.445423L76.7375 0H76.7842L77.2975 0.351649V5.79048L77.2041 7.78315C77.7018 7.32992 78.3862 6.90012 79.2572 6.49377C80.1281 6.08742 81.0069 5.88425 81.8934 5.88425C82.8733 5.88425 83.6354 6.0718 84.1797 6.44689C84.7241 6.82198 85.1052 7.40025 85.3229 8.18169C85.5406 8.9475 85.6495 9.98681 85.6495 11.2996V17.8403L87.2826 18.0513V19.2H81.7068V18.0513L83.2232 17.8403V11.2762C83.2232 10.3541 83.161 9.63516 83.0366 9.11941C82.9122 8.58803 82.6789 8.19732 82.3367 7.94725C81.9945 7.68157 81.4813 7.54872 80.7969 7.54872C80.237 7.54872 79.6382 7.68938 79.0005 7.97069C78.3628 8.25201 77.8029 8.58022 77.3208 8.95531V17.8403L78.9305 18.0513V19.2H73.4947V18.0513L74.8945 17.8637V1.71135Z" fill="#F2F2F2"/>
<path d="M59.1016 8.09155L57.3913 7.67324V6.41831L60.7882 6H60.8595L61.3583 6.41831V7.39436L61.3346 7.95211C61.9047 7.45633 62.6569 7.00704 63.5913 6.60422C64.5256 6.20141 65.4204 6 66.2755 6C67.2732 6 68.0413 6.18591 68.5798 6.55775C69.134 6.92958 69.522 7.50282 69.7437 8.27747C69.9654 9.03662 70.0763 10.0669 70.0763 11.3683V17.8754L71.7391 18.038V19.2H66.1093V18.0613L67.5821 17.8754V11.3451C67.5821 10.431 67.5187 9.71831 67.392 9.20704C67.2653 8.68028 67.0278 8.29296 66.6794 8.04507C66.331 7.78169 65.8242 7.65 65.1591 7.65C64.589 7.65 63.9793 7.78943 63.33 8.06831C62.6807 8.34718 62.1026 8.67253 61.5959 9.04436V17.8521L63.2112 18.0613V19.2H57.6051V18.0613L59.1016 17.8521V8.09155Z" fill="#F2F2F2"/>
<path d="M52.9471 3.34123C52.4658 3.34123 52.1049 3.19596 51.8642 2.90542C51.6236 2.61488 51.5033 2.24363 51.5033 1.79168C51.5033 1.27516 51.6462 0.847415 51.9319 0.508449C52.2327 0.169483 52.6388 0 53.1501 0C53.6615 0 54.0375 0.14527 54.2781 0.435813C54.5187 0.726355 54.639 1.0976 54.639 1.54956C54.639 2.09836 54.4887 2.53417 54.1879 2.857C53.9021 3.17982 53.496 3.34123 52.9696 3.34123H52.9471ZM52.0447 7.62673L50.3302 7.19092V5.90769L53.8269 5.44767H53.872L54.3909 5.88348V17.8199L56.1956 18.0136V19.2H50.2174V18.0136L52.0447 17.7957V7.62673Z" fill="#F2F2F2"/>
<path d="M27.9438 22.9581L30.5742 22.7143V19.1453L30.6453 17.3276C30.1714 17.7709 29.5947 18.1404 28.9154 18.436C28.2519 18.7315 27.5172 18.8793 26.7115 18.8793C25.7794 18.8793 24.9184 18.6576 24.1285 18.2143C23.3386 17.7562 22.7066 17.069 22.2327 16.1527C21.7587 15.2217 21.5217 14.0764 21.5217 12.7168C21.5217 11.4606 21.7982 10.3227 22.3512 9.30296C22.9041 8.28326 23.694 7.47783 24.7209 6.8867C25.7636 6.29557 26.988 6 28.394 6C29.3104 6 30.2741 6.13301 31.2852 6.39902L32.5885 6.0665L33.0388 6.44335V22.7365L34.6739 22.9581V24H27.9438V22.9581ZM27.7068 17.3941C28.3072 17.3941 28.8601 17.2759 29.3656 17.0394C29.8712 16.7882 30.2741 16.5148 30.5742 16.2192V7.81774C30.4794 7.6404 30.1951 7.48523 29.7211 7.35222C29.2472 7.20444 28.7416 7.13054 28.2045 7.13054C27.0038 7.13054 26.0322 7.58128 25.2897 8.48276C24.5629 9.36946 24.1996 10.7291 24.1996 12.5616C24.1996 14.1429 24.5234 15.3473 25.1712 16.1749C25.8347 16.9877 26.6799 17.3941 27.7068 17.3941Z" fill="#F2F2F2"/>
<path d="M18.052 19.1543C17.6144 19.1543 17.2862 19.0706 17.0673 18.9031C16.8642 18.7356 16.7626 18.4616 16.7626 18.081V17.3045C16.2468 17.8069 15.5982 18.2484 14.8167 18.6291C14.0509 19.0097 13.2772 19.2 12.4957 19.2C11.0422 19.2 10.0107 18.8194 9.40111 18.0581C8.79156 17.2969 8.48679 16.0408 8.48679 14.29V7.66713L7.17391 7.30173V6.29689L10.4561 6H10.4795L10.925 6.27405V14.1073C10.925 14.9903 10.9875 15.683 11.1125 16.1855C11.2532 16.6727 11.4876 17.0381 11.8159 17.2817C12.1597 17.51 12.652 17.6242 13.2928 17.6242C13.918 17.6242 14.5041 17.4948 15.0512 17.236C15.5982 16.9772 16.0749 16.6727 16.4812 16.3225V7.66713L14.7933 7.30173V6.29689L18.3568 6H18.3802L18.9194 6.27405V17.7841H20.3261L20.3026 18.8118C19.865 18.9183 19.4821 19.0021 19.1539 19.063C18.8413 19.1239 18.474 19.1543 18.052 19.1543Z" fill="#F2F2F2"/>
<path d="M46.7477 19.1543C46.31 19.1543 45.9818 19.0706 45.763 18.9031C45.5598 18.7356 45.4582 18.4616 45.4582 18.081V17.3045C44.9425 17.8069 44.2938 18.2484 43.5124 18.6291C42.7465 19.0097 41.9729 19.2 41.1914 19.2C39.7379 19.2 38.7063 18.8194 38.0968 18.0581C37.4872 17.2969 37.1824 16.0408 37.1824 14.29V7.66713L35.8696 7.30173V6.29689L39.1517 6H39.1752L39.6206 6.27405V14.1073C39.6206 14.9903 39.6831 15.683 39.8082 16.1855C39.9488 16.6727 40.1833 17.0381 40.5115 17.2817C40.8554 17.51 41.3477 17.6242 41.9885 17.6242C42.6137 17.6242 43.1998 17.4948 43.7468 17.236C44.2938 16.9772 44.7705 16.6727 45.1769 16.3225V7.66713L43.4889 7.30173V6.29689L47.0524 6H47.0759L47.6151 6.27405V17.7841H49.0217L48.9983 18.8118C48.5607 18.9183 48.1777 19.0021 47.8495 19.063C47.5369 19.1239 47.1696 19.1543 46.7477 19.1543Z" fill="#F2F2F2"/>
<path d="M1.79348 1.71135L0 1.45348V0.445423L3.56482 0H3.6091L4.09622 0.351649V17.8637L5.97826 18.0513V19.2H0V18.0513L1.79348 17.8403V1.71135Z" fill="#F2F2F2"/>
</svg>
