<svg width="128" height="100" viewBox="0 0 128 100" fill="none" xmlns="http://www.w3.org/2000/svg">
<path fill-rule="evenodd" clip-rule="evenodd" d="M115.684 5.18359H12.3162C8.42928 5.18359 5.27835 8.27795 5.27835 12.095V87.905C5.27835 91.7221 8.42928 94.8164 12.3162 94.8164H115.684C119.571 94.8164 122.722 91.7221 122.722 87.905V12.095C122.722 8.27795 119.571 5.18359 115.684 5.18359ZM12.3162 0C5.51413 0 0 5.41513 0 12.095V87.905C0 94.5849 5.51413 100 12.3162 100H115.684C122.486 100 128 94.5849 128 87.905V12.095C128 5.41513 122.486 0 115.684 0H12.3162Z" fill="#0D0D0D"/>
<path d="M58.9416 44.8164V86.8251H64.4399V57.6674L83.354 80.5616L103.148 57.6674V86.8251H108.646V44.8164L83.354 73.0022L58.9416 44.8164Z" fill="#0D0D0D"/>
<path d="M42.8866 25.486H5.27835V20.5184H60.3711L83.354 46.7603L105.347 20.5184H122.722V25.486H108.646L83.354 54.4276L58.9416 25.486H47.945V86.8251H13.6357V34.9892H21.7732V79.9136H42.8866V25.486Z" fill="#0D0D0D"/>
<path d="M18.9141 12.959C18.9141 14.3904 17.7325 15.5508 16.2749 15.5508C14.8173 15.5508 13.6357 14.3904 13.6357 12.959C13.6357 11.5276 14.8173 10.3672 16.2749 10.3672C17.7325 10.3672 18.9141 11.5276 18.9141 12.959Z" fill="#0D0D0D"/>
<path d="M26.8316 12.959C26.8316 14.3904 25.65 15.5508 24.1924 15.5508C22.7349 15.5508 21.5533 14.3904 21.5533 12.959C21.5533 11.5276 22.7349 10.3672 24.1924 10.3672C25.65 10.3672 26.8316 11.5276 26.8316 12.959Z" fill="#0D0D0D"/>
<path d="M34.7491 12.959C34.7491 14.3904 33.5675 15.5508 32.11 15.5508C30.6524 15.5508 29.4708 14.3904 29.4708 12.959C29.4708 11.5276 30.6524 10.3672 32.11 10.3672C33.5675 10.3672 34.7491 11.5276 34.7491 12.959Z" fill="#0D0D0D"/>
</svg>
