<svg width="20" height="21" viewBox="0 0 20 21" fill="none" xmlns="http://www.w3.org/2000/svg">
<path fill-rule="evenodd" clip-rule="evenodd" d="M17.2766 0.803541C17.563 0.756964 17.8565 0.77177 18.1365 0.846928C18.4165 0.922086 18.6763 1.05579 18.8979 1.23876C19.1196 1.42172 19.2977 1.64955 19.4199 1.9064C19.5421 2.16326 19.6055 2.44298 19.6056 2.72612V14.2499C19.6054 15.1083 19.3146 15.9427 18.7785 16.6236C18.2423 17.3046 17.4907 17.794 16.6402 18.016C15.7897 18.2381 14.8877 18.1803 14.0743 17.8517C13.2609 17.5231 12.5814 16.942 12.1412 16.1985C11.7011 15.455 11.5248 14.5907 11.6398 13.7397C11.7548 12.8886 12.1547 12.0983 12.7773 11.4913C13.3999 10.8843 14.2106 10.4946 15.0836 10.3826C15.9565 10.2706 16.843 10.4425 17.6056 10.8717V6.62587L7.60556 8.25109V15.2248C7.60556 15.2833 7.60056 15.3399 7.59056 15.3945C7.66235 16.1442 7.47778 16.896 7.06561 17.5327C6.65343 18.1695 6.0368 18.6555 5.31178 18.9149C4.58676 19.1744 3.79408 19.1928 3.05722 18.9672C2.32037 18.7417 1.68074 18.2848 1.23798 17.6679C0.795213 17.0509 0.57419 16.3085 0.609342 15.5563C0.644493 14.8042 0.933845 14.0844 1.43232 13.5093C1.93079 12.9342 2.61038 12.5359 3.36522 12.3766C4.12006 12.2173 4.90775 12.3059 5.60556 12.6286V4.35134C5.6055 3.88977 5.7734 3.44314 6.07937 3.09092C6.38535 2.73869 6.80957 2.50372 7.27656 2.42779L17.2766 0.803541ZM7.60556 6.27489L17.6056 4.64967V2.72612L7.60556 4.35134V6.27489Z" fill="#F1B441"/>
</svg>
