<svg width="20" height="21" viewBox="0 0 20 21" fill="none" xmlns="http://www.w3.org/2000/svg">
<path fill-rule="evenodd" clip-rule="evenodd" d="M11.1983 20.351L11.1873 20.353L11.1163 20.3871L11.0963 20.391L11.0823 20.3871L11.0113 20.353C11.0007 20.3497 10.9927 20.3514 10.9873 20.3579L10.9833 20.3676L10.9663 20.7849L10.9713 20.8044L10.9813 20.8171L11.0853 20.8892L11.1003 20.8931L11.1123 20.8892L11.2163 20.8171L11.2283 20.8015L11.2323 20.7849L11.2153 20.3686C11.2127 20.3582 11.207 20.3523 11.1983 20.351ZM11.4633 20.2409L11.4503 20.2428L11.2653 20.3335L11.2553 20.3432L11.2523 20.354L11.2703 20.7732L11.2753 20.7849L11.2833 20.7917L11.4843 20.8824C11.497 20.8856 11.5067 20.883 11.5133 20.8746L11.5173 20.8609L11.4833 20.2623C11.48 20.2506 11.4733 20.2435 11.4633 20.2409ZM10.7483 20.2428C10.7439 20.2402 10.7387 20.2394 10.7336 20.2405C10.7286 20.2415 10.7242 20.2445 10.7213 20.2487L10.7153 20.2623L10.6813 20.8609C10.682 20.8726 10.6877 20.8804 10.6983 20.8843L10.7133 20.8824L10.9143 20.7917L10.9243 20.7839L10.9283 20.7732L10.9453 20.354L10.9423 20.3423L10.9323 20.3325L10.7483 20.2428Z" fill="#D9D9D9"/>
<path fill-rule="evenodd" clip-rule="evenodd" d="M17.2763 0.803541C17.5628 0.756964 17.8562 0.77177 18.1362 0.846928C18.4162 0.922086 18.6761 1.05579 18.8977 1.23876C19.1193 1.42172 19.2975 1.64955 19.4197 1.9064C19.5419 2.16326 19.6052 2.44298 19.6053 2.72612V14.2499C19.6051 15.1083 19.3144 15.9427 18.7783 16.6236C18.2421 17.3046 17.4905 17.794 16.6399 18.016C15.7894 18.2381 14.8875 18.1803 14.0741 17.8517C13.2606 17.5231 12.5812 16.942 12.141 16.1985C11.7008 15.455 11.5246 14.5907 11.6396 13.7397C11.7546 12.8886 12.1544 12.0983 12.777 11.4913C13.3997 10.8843 14.2104 10.4946 15.0833 10.3826C15.9563 10.2706 16.8428 10.4425 17.6053 10.8717V6.62587L7.60532 8.25109V15.2248C7.60532 15.2833 7.60032 15.3399 7.59032 15.3945C7.66211 16.1442 7.47754 16.896 7.06536 17.5327C6.65319 18.1695 6.03656 18.6555 5.31154 18.9149C4.58652 19.1744 3.79383 19.1928 3.05698 18.9672C2.32013 18.7417 1.68049 18.2848 1.23773 17.6679C0.794969 17.0509 0.573946 16.3085 0.609097 15.5563C0.644249 14.8042 0.933601 14.0844 1.43207 13.5093C1.93054 12.9342 2.61014 12.5359 3.36498 12.3766C4.11981 12.2173 4.9075 12.3059 5.60532 12.6286V4.35134C5.60526 3.88977 5.77315 3.44314 6.07913 3.09092C6.38511 2.73869 6.80933 2.50372 7.27632 2.42779L17.2763 0.803541ZM7.60532 6.27489L17.6053 4.64967V2.72612L7.60532 4.35134V6.27489Z" fill="#D9D9D9"/>
</svg>
