<svg width="16" height="16" viewBox="0 0 16 16" fill="none" xmlns="http://www.w3.org/2000/svg">
<path d="M10.3 8.2L9.4 9.1L10.3 10L9.1 11.2L13.4 15.5C14 16.1 14.9 16.1 15.5 15.5C16.1 14.9 16.1 14 15.5 13.4L10.3 8.2ZM14.2 15C13.8 15 13.4 14.7 13.4 14.2C13.4 13.8 13.7 13.4 14.2 13.4C14.7 13.4 15 13.7 15 14.2C15 14.7 14.7 15 14.2 15ZM3.6 8L4.5 7.4L6 5.7L6.9 6.6L7.8 5.7L7.7 5.6C7.9 5.1 8 4.6 8 4C8 1.8 6.2 0 4 0C3.4 0 2.9 0.1 2.4 0.3L5.3 3.2L3.2 5.3L0.3 2.4C0.1 2.9 0 3.4 0 4C0 6.1 1.6 7.7 3.6 8Z" fill="#D9D9D9"/>
<path d="M7.9998 10.8L8.8998 10L7.9998 9.10001L13.6998 3.40001L14.8998 3.00001L15.9998 0.800006L15.2998 0.100006L12.9998 1.10001L12.4998 2.30001L6.8998 8.00001L5.9998 7.10001L5.1998 8.00001C5.1998 8.00001 5.9998 8.60001 5.0998 9.50001C4.5998 10 3.7998 9.40001 2.2998 10.9L0.199805 13C0.199805 13 -0.400195 14 0.799805 15.2C1.9998 16.4 2.9998 15.8 2.9998 15.8L5.0998 13.7C6.4998 12.3 5.9998 11.4 6.3998 11C7.2998 10.1 7.9998 10.8 7.9998 10.8ZM4.8998 10.4L5.5998 11.1L1.7998 14.9L1.0998 14.2L4.8998 10.4Z" fill="#D9D9D9"/>
</svg>
