<svg width="16" height="16" viewBox="0 0 16 16" fill="none" xmlns="http://www.w3.org/2000/svg">
<path d="M10.3 8.2L9.4 9.1L10.3 10L9.1 11.2L13.4 15.5C14 16.1 14.9 16.1 15.5 15.5C16.1 14.9 16.1 14 15.5 13.4L10.3 8.2ZM14.2 15C13.8 15 13.4 14.7 13.4 14.2C13.4 13.8 13.7 13.4 14.2 13.4C14.7 13.4 15 13.7 15 14.2C15 14.7 14.7 15 14.2 15ZM3.6 8L4.5 7.4L6 5.7L6.9 6.6L7.8 5.7L7.7 5.6C7.9 5.1 8 4.6 8 4C8 1.8 6.2 0 4 0C3.4 0 2.9 0.1 2.4 0.3L5.3 3.2L3.2 5.3L0.3 2.4C0.1 2.9 0 3.4 0 4C0 6.1 1.6 7.7 3.6 8Z" fill="white"/>
<path d="M8.00005 10.8L8.90005 9.99998L8.00005 9.09998L13.7 3.39998L14.9 2.99998L16 0.799976L15.3 0.0999756L13 1.09998L12.5 2.29998L6.90005 7.99998L6.00005 7.09998L5.20005 7.99998C5.20005 7.99998 6.00005 8.59998 5.10005 9.49998C4.60005 9.99998 3.80005 9.39998 2.30005 10.9L0.200049 13C0.200049 13 -0.399951 14 0.800049 15.2C2.00005 16.4 3.00005 15.8 3.00005 15.8L5.10005 13.7C6.50005 12.3 6.00005 11.4 6.40005 11C7.30005 10.1 8.00005 10.8 8.00005 10.8ZM4.90005 10.4L5.60005 11.1L1.80005 14.9L1.10005 14.2L4.90005 10.4Z" fill="white"/>
</svg>
